<?xml version="1.0" encoding="UTF-8" standalone="no"?>
<!DOCTYPE svg PUBLIC "-//W3C//DTD SVG 1.1//EN" "http://www.w3.org/Graphics/SVG/1.1/DTD/svg11.dtd">
<svg width="100%" height="100%" viewBox="0 0 1080 1080" version="1.1" xmlns="http://www.w3.org/2000/svg" xmlns:xlink="http://www.w3.org/1999/xlink" xml:space="preserve" xmlns:serif="http://www.serif.com/" style="fill-rule:evenodd;clip-rule:evenodd;stroke-linejoin:round;stroke-miterlimit:2;">
    <g id="color">
        <g transform="matrix(1,0,0,1.00263,0,0.083352)">
            <g>
                <g transform="matrix(0.936175,0,0,0.935292,40.6422,29.5835)">
                    <rect x="-43.413" y="-31.719" width="1153.63" height="1151.69" style="fill:url(#_Linear1);"/>
                </g>
                <g transform="matrix(1.3822,0,0,1.3396,-170.014,206.519)">
                    <circle cx="353.787" cy="415.922" r="183.759" style="fill:url(#_Linear2);"/>
                    <circle cx="353.787" cy="415.922" r="183.759" style="fill:url(#_Linear3);"/>
                </g>
            </g>
            <g transform="matrix(1,0,0,0.997379,0,-0.0831335)">
                <path d="M1080,580.587L1080,489.763C1068.85,494.801 1060.05,498.715 1055.94,499.135C1030.16,501.764 1007.45,492.202 982.478,487.307C957.932,482.494 908.14,476.857 886.491,485.033C864.841,493.209 827.05,517.362 803.734,521.524C758.328,529.628 732.19,510.574 686.317,512.875C645.411,514.927 582.397,533.398 541.518,535.936C522.727,537.102 503.947,538.472 485.189,540.096C483.093,540.278 462.267,542.286 460.9,543.88C458.412,546.782 476.63,550.026 479.82,550.516C496.445,553.069 513.092,555.542 529.818,557.313C597.31,564.457 638.68,586.991 706.593,587.283C748.38,587.463 798.446,566.999 840.231,566.525C891.335,565.945 914.464,566.02 965.403,570.279C1003.45,573.46 1002.89,576.513 1040.77,579.168C1054.52,580.132 1067.3,580.512 1080,580.587Z" style="fill:url(#_Linear4);"/>
            </g>
            <g transform="matrix(1,0,0,0.997379,0,-0.0831335)">
                <path d="M0,292.987L0,416.877C15.391,416.92 27.885,415.729 47.454,413.792C70.56,411.506 96.903,394.188 116.708,406.335C142.256,422.004 215.879,419.586 263.772,424.983C295.079,428.511 321.81,403.991 352.886,409.183C376.859,413.188 401.949,424.035 426.314,424.983C445.831,425.742 469.066,428.118 488.289,424.983C512.078,421.103 553.262,422.117 577.771,424.983C601.045,427.705 653.57,440.441 677.445,440.124C722.644,439.525 764.117,410.486 786.289,409.183C800.035,408.376 813.778,407.421 827.479,406.047C831.992,405.594 836.432,404.576 840.884,403.706C842.393,403.412 845.959,402.618 846.583,400.66C847.132,398.941 758.924,349.391 689.206,363.744C669.729,367.754 648.657,366.226 629.23,363.51C616.493,361.73 603.88,358.548 594.683,349.04C588.243,342.381 551.66,328.034 540.235,328.724C495.438,331.43 483.223,349.154 438.144,349.365C404.524,349.522 403.207,332.055 370.116,328.724C352.331,326.933 306.863,339.452 289.079,337.655C280.326,336.771 271.382,332.864 263.772,328.724C246.009,319.061 228.916,306.612 209.393,300.397C173.984,289.126 139.253,306.822 105.742,316.014C68.672,326.181 33.285,307.974 0,292.987Z" style="fill:url(#_Linear5);"/>
            </g>
            <g transform="matrix(1,0,0,0.997379,0,-0.0831335)">
                <path d="M1080,181.507C1054.78,191.238 1030.76,204.21 1023.08,204.995C997.302,207.624 974.585,198.062 949.617,193.167C925.071,188.354 875.279,182.717 853.63,190.893C831.98,199.069 794.189,223.222 770.873,227.384C725.467,235.488 699.329,216.434 653.456,218.735C612.55,220.787 549.536,239.258 508.657,241.796C489.866,242.962 471.085,244.333 452.328,245.956C450.232,246.138 429.406,248.146 428.039,249.74C425.551,252.642 443.769,255.886 446.959,256.376C463.584,258.929 480.231,261.402 496.956,263.173C564.449,270.318 605.819,292.851 673.732,293.143C715.519,293.323 765.585,272.859 807.37,272.385C858.474,271.805 881.603,271.88 932.542,276.139C970.584,279.32 970.031,282.373 1007.91,285.028C1033.39,286.814 1055.52,286.594 1080,286.151L1080,181.507Z" style="fill:url(#_Linear6);"/>
            </g>
        </g>
        <path d="M2.415,81.435L-1,81.296L-1,1080.92L1080,1080.92L1080,866.354C949.446,851.314 782.715,829.715 511.634,794.099L488.655,794.099C488.821,793.933 488.979,793.77 489.129,793.612C492.705,789.86 488.895,778.044 488.895,778.044L489.129,776.577L485.19,775.957C485.374,771.303 484.643,769.694 482.421,766.675C480.796,762.03 475.688,760.905 469.593,760.671C468.035,757.367 463.034,756.464 456.787,755.777L455.825,753.05L453.83,753.05L451.399,751.666C450.147,750.328 451.708,748.325 450.447,747.413C449.683,746.86 447.837,747.048 447.864,746.028C447.892,744.987 447.86,744.221 447.207,743.876C445.529,742.988 442.979,740.82 442.979,740.82L440.926,741.638C440.926,741.638 438.022,741.267 436.712,741.638C435.843,741.883 434.821,743.497 434.16,743.439L433.396,742.657L433.396,738.542L428.431,735.679L427.923,733.929L425.836,733.929C425.101,732.888 423.593,732.033 421.87,732.143L420.468,730.409L418.91,729.311L418.196,727.454L414.384,723.362C412.793,722.691 411.316,722.362 409.947,722.358L406.642,723.362L405.923,722.634C405.441,721.83 406.141,718.079 405.607,717.358C404.509,715.874 403.403,714.077 401.97,713.283C400.428,712.429 398.126,711.528 396.303,711.239C395.105,711.049 394.337,711.584 393.342,710.953C393.004,710.738 393.183,709.674 392.867,709.401L388.243,703.37L382.879,698.211C380.643,696.568 378.313,695.447 375.925,694.648C372.559,690.889 368.597,687.47 363.764,684.548C355.072,675.931 345.057,668.958 333.773,663.559C332.454,662.928 330.945,663.308 329.592,662.72C322.768,657.718 313.605,656.456 301.186,660.4L295.897,662.72L287.271,665.051C280.018,664.211 273.92,665.431 269.136,668.998L262.099,669.71C261.188,668.715 260.593,667.729 260.93,666.791C261.145,666.19 263.883,663.81 264.881,663.245C268.829,660.693 270.809,659.723 273.887,656.765C275.283,656.277 276.021,656.089 277.277,655.163C277.873,654.723 279.509,654.934 280.764,654.068C283.087,652.466 284.39,649 284.543,645.208C284.579,644.309 287.193,642.728 287.75,642.042C289.3,640.293 291.792,638.913 292.791,637.556C293.538,636.543 293.597,635.208 293.744,633.9L312.312,643.695L354.876,572.562C348.946,568.706 345.356,566.533 338.208,561.655C337.757,561.348 336.551,560.813 336.178,559.955C335.875,559.257 336.384,558.238 336.178,557.828C336.178,557.828 335.256,557.441 334.9,557.828C334.5,558.264 334.315,560.475 333.346,560.353C332.523,560.25 330.6,559.275 328.581,558.558C327.29,558.1 323.959,557 323.959,557C323.959,557 322.965,557.416 322.655,557.51C322.094,557.681 319.539,555.654 319.539,555.654C308.894,568.896 304.807,576.548 300.102,584.328L297.803,582.961C290.406,588.153 289.121,595.051 289.77,600.919C289.77,600.919 285.782,599.987 284.543,601.215C283.244,602.501 280.932,607.848 278.873,611.215C277.182,613.981 275.575,614.981 275.575,614.981L272.779,614.981C272.779,614.981 270.853,616.801 269.72,617.463C267.215,618.926 257.748,623.763 257.748,623.763C257.748,623.763 256.206,615.077 254.869,611.215C254.226,609.358 252.715,604.421 251.415,601.215C248.466,593.942 245.074,589.596 245.146,587.975C243.006,576.927 238.848,573.566 234.49,570.964C234.49,570.964 231.806,566.741 230.756,565.897C230.088,565.36 228.97,566.248 228.189,565.897C227.263,565.481 225.698,564.583 225.2,563.4C224.701,562.218 223.701,558.5 225.2,558.802C227.263,559.218 234.81,564.797 237.577,565.897C238.896,566.421 240.542,565.943 241.804,565.402C243.065,564.86 244.261,563.491 245.146,562.649C245.876,561.955 246.449,560.904 247.115,560.353C247.696,559.872 248.425,559.585 249.139,559.344C249.903,559.085 251.224,559.564 251.698,558.802C251.974,558.358 252.443,557.297 252.322,556.135C252.236,555.312 251.159,554.83 251.415,554.495C252.031,553.687 254.317,554.719 255.113,554.495C255.666,554.339 256.233,553.723 256.191,553.149C256.096,551.851 255.841,548.147 257.002,547.298C257.472,546.954 260.803,548.014 262.099,546.852C263.678,545.435 263.362,542.56 262.494,538.673C262.065,536.749 261.817,535.355 262.099,534.088C262.365,532.894 263.221,531.82 264.188,531.073C265.225,530.272 267.847,529.746 268.319,529.284C268.731,528.882 268.684,527.383 269.136,526.545C270.005,524.936 273.533,519.628 273.533,519.628C273.533,519.628 275.235,517.046 275.575,516.1C275.818,515.428 275.215,514.401 275.575,513.955C275.936,513.509 277.189,513.425 277.738,513.425C278.155,513.425 278.503,513.867 278.873,513.955C279.225,514.039 279.888,514.307 279.959,513.955C280.03,513.603 279.298,512.272 279.298,511.842C279.298,511.572 279.714,511.376 279.959,511.376C280.203,511.376 280.556,511.636 280.764,511.842C280.972,512.048 281.007,512.394 281.207,512.612C281.448,512.876 281.933,513.553 282.213,513.425C282.492,513.297 282.787,512.407 282.885,511.842C282.997,511.196 283.071,510.124 282.885,509.547C282.719,509.033 281.767,508.838 281.767,508.377C281.767,507.916 282.538,507.045 282.885,506.779C283.141,506.583 283.749,507.085 283.85,506.779C284.011,506.292 284.123,504.572 283.85,503.859C283.597,503.195 282.359,503.193 282.213,502.498C282.052,501.73 282.885,500.223 282.885,499.255C282.885,498.369 282.492,497.21 282.213,496.684C282.03,496.342 281.387,496.445 281.207,496.101C280.831,495.383 280.554,493.542 279.959,492.377C279.304,491.095 277.647,489.636 277.277,488.409C276.948,487.317 278.262,486.029 277.738,485.015C277.114,483.807 274.552,482.175 273.533,481.16C272.839,480.469 271.852,479.612 271.625,478.926C271.42,478.304 272.385,477.354 272.173,477.04C271.962,476.726 270.66,477.422 270.357,477.04C270.054,476.658 270.357,475.356 270.357,474.747C270.357,474.293 270.696,473.385 270.357,473.385C270.017,473.385 268.659,474.747 268.319,474.747C267.98,474.747 268.319,473.839 268.319,473.385C268.319,472.818 268.558,471.984 268.319,471.348C268.022,470.555 267.109,469.081 266.536,468.627C266.103,468.285 265.272,469.007 264.881,468.627C264.489,468.247 264.534,466.855 264.188,466.348C263.891,465.913 262.967,465.209 262.805,465.589C262.643,465.969 263.216,468.014 263.216,468.627C263.216,468.882 262.882,469.514 262.805,469.271C262.685,468.892 262.75,466.962 262.494,466.348C262.309,465.904 261.532,465.984 261.271,465.589C261.01,465.194 261.128,464.248 260.93,463.98C260.762,463.752 260.225,464.088 260.084,463.98C259.943,463.872 260.291,463.39 260.084,463.332C259.694,463.224 258.137,463.486 257.748,463.332C257.463,463.219 258.006,462.575 257.748,462.41C257.454,462.221 256.434,462.589 255.986,462.202C255.506,461.787 255.353,460.404 254.869,459.924C254.421,459.481 253.428,459.242 253.078,459.323C252.728,459.403 252.894,460.502 252.768,460.406C252.643,460.31 252.604,458.928 252.322,458.747C252.04,458.567 251.494,459.475 251.074,459.323C250.654,459.17 250.014,458.259 249.802,457.832C249.643,457.513 250.064,457.003 249.802,456.762C249.466,456.453 248.359,456.163 247.789,455.976C247.33,455.826 246.722,455.611 246.379,455.643C246.102,455.669 245.902,456.363 245.73,456.167C245.558,455.971 245.556,454.976 245.347,454.468C245.142,453.973 244.751,453.151 244.473,453.12C244.194,453.089 243.918,454.281 243.678,454.281C243.439,454.281 243.448,453.276 243.034,453.12C242.524,452.926 241.374,453.393 240.616,453.12C239.667,452.777 238.21,451.408 237.343,451.065C236.744,450.829 235.796,450.856 235.414,451.065C235.032,451.274 235.424,452.424 235.049,452.319C234.675,452.214 233.639,450.351 233.169,450.438C232.699,450.525 232.601,452.739 232.23,452.843C231.859,452.948 231.433,451.065 230.941,451.065C230.449,451.065 229.901,452.789 229.279,452.843C228.658,452.897 227.74,451.686 227.214,451.39C226.883,451.203 226.304,451.297 226.122,451.065C225.94,450.834 226.268,450.325 226.122,450.002C225.968,449.662 225.555,448.951 225.2,449.024C224.844,449.097 224.57,450.222 223.989,450.438C223.355,450.674 222.094,450.405 221.393,450.438C220.854,450.463 219.861,450.354 219.785,450.634C219.709,450.914 221.49,451.828 220.936,452.118C220.145,452.532 216.22,452.917 215.039,453.12C214.641,453.188 214.046,452.989 213.848,453.331C213.649,453.673 214.347,454.816 213.848,455.17C213.136,455.676 210.841,455.598 209.576,456.365C208.063,457.283 205.686,459.671 204.767,460.678C204.347,461.138 204.275,462.09 204.058,462.41C203.943,462.58 203.603,462.438 203.469,462.594C203.294,462.797 203.347,463.458 203.01,463.625C202.664,463.797 201.862,463.502 201.389,463.625C200.93,463.745 200.31,463.909 200.173,464.364C200.004,464.921 200.705,466.471 200.38,466.97C200.055,467.469 198.695,467.029 198.222,467.359C197.749,467.689 197.972,468.568 197.541,468.952C197.092,469.351 195.97,469.183 195.529,469.756C195.02,470.418 194.974,471.926 194.485,472.924C193.962,473.989 193.054,475.051 192.394,476.149C191.649,477.387 190.558,478.873 190.016,480.351C189.475,481.829 189.406,484.127 189.146,485.015C189.056,485.323 188.516,485.367 188.454,485.681C188.305,486.432 188.286,488.24 188.253,489.521C188.219,490.827 188.29,492.184 188.253,493.515C188.215,494.89 187.99,496.589 188.024,497.776C188.051,498.74 188.267,500.054 188.454,500.637C188.549,500.936 189.171,500.96 189.146,501.272C189.112,501.686 188.199,502.437 188.253,503.119C188.32,503.985 189.406,505.279 189.552,506.467C189.701,507.673 189.146,509.46 189.146,510.356C189.146,510.581 189.224,510.795 189.311,511.008L189.387,511.19C189.474,511.403 189.552,511.618 189.552,511.842C189.552,512.442 189.068,513.541 189.146,513.955C189.204,514.266 189.961,514.017 190.016,514.328C190.161,515.148 189.925,517.878 190.016,518.876C190.063,519.388 190.477,519.81 190.564,520.317C190.655,520.848 190.327,521.771 190.564,522.062C190.802,522.353 191.82,521.617 191.988,522.062C192.226,522.691 192.11,524.634 191.988,525.838C191.87,527.006 191.409,528.12 191.255,529.284C191.084,530.581 191.223,532.193 190.96,533.617C190.608,535.52 189.861,538.425 189.146,540.706C188.443,542.946 187.509,545.576 186.67,547.298C186.009,548.656 184.964,550.414 184.113,551.037C183.427,551.539 182.081,550.894 181.565,551.037C181.238,551.128 181.302,551.71 181.019,551.898C180.49,552.25 178.831,552.398 178.393,553.149C177.955,553.9 178.95,555.501 178.393,556.403C177.836,557.305 175.812,557.471 175.051,558.558C173.514,560.755 170.598,566.659 169.171,569.583C168.141,571.695 167.454,573.959 166.494,576.102C165.436,578.462 163.965,581.156 162.827,583.741C161.637,586.446 160.099,591.357 159.353,592.328C158.758,593.103 155.54,606.497 155.54,606.497C155.54,606.497 149.195,623.499 144.25,640.893C136.823,578.271 134.551,489.607 134.928,453.715C135.038,443.291 140.569,433.05 147.053,424.902C166.906,399.95 236.216,326.856 254.048,304.007C257.367,299.755 252.482,292.976 254.048,287.81C256.795,278.751 266.907,259.687 270.529,249.653C273.094,242.549 274.147,233.294 275.781,227.609C276.97,223.476 277.996,219.145 280.337,215.541C283.553,210.591 290.438,201.547 295.076,197.908C298.684,195.077 303.966,195.051 308.167,193.708C312.203,192.417 316.1,189.151 320.279,189.848C324.477,190.548 331.178,194.771 333.357,197.908C335.403,200.851 332.042,207.958 333.357,208.67C334.673,209.381 337.898,201.595 341.252,202.177C347.851,203.322 372.953,215.541 372.953,215.541C372.953,215.541 395.522,230.38 406.967,229.235C418.412,228.089 441.622,208.67 441.622,208.67L455.588,193.708L480.363,174.739L494.639,160.355L359.525,102.647C305.459,94.015 35.899,82.803 2.415,81.435ZM514.992,949.195C514.846,947.454 514.846,946.409 514.846,945.713C514.41,935.789 513.827,928.477 512.662,922.905C507.566,896.964 491.694,882.165 468.979,882.165C441.167,882.165 422.674,904.973 422.674,939.445C422.674,956.681 427.334,971.48 435.925,981.926C444.225,991.85 455.437,996.725 469.707,996.725C484.122,996.725 495.771,991.676 504.071,981.926C508.148,977.052 510.332,973.047 513.681,963.994L488.345,955.463C487.18,959.989 486.161,961.905 483.977,964.342C480.191,968.52 475.094,970.784 469.27,970.784C457.767,970.784 450.923,963.297 449.467,949.195L514.992,949.195ZM988.376,949.195C988.231,947.454 988.231,946.409 988.231,945.713C987.794,935.789 987.211,928.477 986.046,922.905C980.95,896.964 965.078,882.165 942.363,882.165C914.551,882.165 896.058,904.973 896.058,939.445C896.058,956.681 900.718,971.48 909.309,981.926C917.609,991.85 928.821,996.725 943.091,996.725C957.506,996.725 969.155,991.676 977.455,981.926C981.532,977.052 983.717,973.047 987.066,963.994L961.729,955.463C960.564,959.989 959.545,961.905 957.361,964.342C953.575,968.52 948.478,970.784 942.654,970.784C931.151,970.784 924.307,963.297 922.851,949.195L988.376,949.195ZM294.099,949.195C293.953,947.454 293.953,946.409 293.953,945.713C293.516,935.789 292.934,928.477 291.769,922.905C286.673,896.964 270.801,882.165 248.085,882.165C220.274,882.165 201.781,904.973 201.781,939.445C201.781,956.681 206.44,971.48 215.032,981.926C223.331,991.85 234.544,996.725 248.813,996.725C263.229,996.725 274.878,991.676 283.178,981.926C287.255,977.052 289.439,973.047 292.788,963.994L267.452,955.463C266.287,959.989 265.268,961.905 263.083,964.342C259.298,968.52 254.201,970.784 248.377,970.784C236.873,970.784 230.03,963.297 228.573,949.195L294.099,949.195ZM612.406,918.553C607.601,895.397 592.021,882.165 569.596,882.165C541.202,882.165 522.855,904.45 522.855,939.271C522.855,956.333 527.515,971.654 535.96,981.578C543.969,991.328 555.909,996.551 569.888,996.551C586.779,996.551 600.029,989.413 607.31,976.529C610.077,971.48 611.824,966.779 613.426,959.293L586.633,954.244C586.051,958.248 585.323,959.989 584.012,962.253C581.1,967.128 575.858,969.913 570.179,969.913C558.53,969.913 551.104,957.726 551.104,938.923C551.104,919.772 558.093,908.629 569.888,908.629C575.13,908.629 579.207,910.718 582.119,914.723C584.012,917.334 584.886,919.772 586.196,924.995L612.406,918.553ZM636.287,886.344L631.045,886.344C625.948,886.344 622.308,885.995 618.085,885.299L618.085,914.374C622.308,913.678 626.094,913.33 630.753,913.33L636.287,913.33L636.287,966.605C636.287,978.444 638.325,984.364 643.858,989.413C648.518,993.591 655.362,995.506 665.263,995.506C673.126,995.506 678.805,994.462 685.358,992.024L683.174,965.561C679.533,967.824 676.767,968.695 672.981,968.695C670.214,968.695 667.884,967.998 666.283,966.779C664.39,965.212 663.662,962.775 663.662,957.9L663.662,913.33L669.777,913.33C675.019,913.33 678.805,913.678 683.174,914.374L683.174,885.473C678.66,886.17 675.311,886.344 668.904,886.344L663.662,886.344L663.662,882.688C663.662,874.331 664.099,865.974 664.827,858.835L635.122,858.835C635.995,867.018 636.287,873.982 636.287,882.688L636.287,886.344ZM194.791,992.547C191.151,983.319 189.404,978.967 187.802,974.092C181.25,955.289 179.211,949.369 177.027,943.798C172.367,931.436 169.018,927.432 161.592,924.646C168.727,921.861 171.785,919.946 175.425,915.941C181.104,909.499 184.016,899.75 184.016,887.388C184.016,862.317 170.329,847.693 146.74,847.693L108.88,847.693C98.979,847.693 93.591,847.519 87.184,847.17C88.058,855.527 88.349,861.969 88.349,872.764L88.349,966.431C88.349,979.315 88.058,984.538 87.184,992.547L118.491,992.547C117.617,984.538 117.326,978.096 117.326,966.257L117.326,937.704L132.178,937.704C136.838,937.704 140.478,939.097 143.536,942.405C147.176,946.235 148.924,950.24 153.583,965.387C158.097,979.837 159.845,986.975 160.718,992.547L194.791,992.547ZM319.435,913.156L319.435,966.257C319.435,977.574 319.144,984.016 318.27,992.547L348.558,992.547C347.684,984.016 347.393,978.27 347.393,966.257L347.393,913.156L351.907,913.156C360.061,913.156 364.866,913.504 370.982,914.374L370.982,885.125C365.594,885.821 357.731,886.344 351.615,886.344L347.393,886.344L347.393,881.991C347.393,872.938 350.159,869.456 357.294,869.456C362.828,869.456 367.196,870.849 371.71,873.808L376.224,848.215C368.215,845.604 362.245,844.559 354.091,844.559C330.356,844.559 319.435,855.179 319.435,878.161L319.435,886.344L315.504,886.344C309.97,886.344 303.272,885.821 299.195,885.125L299.195,914.374C304.146,913.504 308.66,913.156 315.504,913.156L319.435,913.156ZM770.395,992.547C769.522,984.016 769.23,977.226 769.23,966.257L769.23,931.088C773.307,919.249 780.006,912.459 787.869,912.459C791.363,912.459 794.276,914.026 795.877,916.812C797.77,919.772 798.353,923.079 798.353,930.392L798.353,966.257C798.353,977.4 798.061,984.712 797.188,992.547L827.475,992.547C826.601,984.19 826.31,976.877 826.31,966.431L826.31,930.914C829.95,919.249 836.649,912.285 844.075,912.285C852.375,912.285 855.578,917.334 855.578,930.392L855.578,966.257C855.578,978.096 855.287,984.364 854.413,992.547L884.7,992.547C883.827,984.364 883.536,977.226 883.536,966.431L883.536,923.254C883.536,896.964 872.906,883.384 852.083,883.384C839.415,883.384 830.533,887.911 821.505,898.531C819.612,894.178 818.156,892.089 815.535,889.826C810.73,885.647 804.468,883.558 796.897,883.558C785.393,883.558 776.511,888.085 769.085,897.835L769.085,896.093C769.23,894.352 769.23,894.352 769.23,893.656L769.23,886.344L740.399,886.344C741.273,893.134 741.564,899.401 741.564,912.633L741.564,966.257C741.564,977.226 741.273,984.538 740.399,992.547L770.395,992.547ZM694.531,886.344C695.405,894.178 695.696,901.317 695.696,912.633L695.696,966.257C695.696,977.4 695.405,984.016 694.531,992.547L724.964,992.547C724.236,985.06 723.799,975.659 723.799,966.257L723.799,912.633C723.799,900.446 724.091,893.482 724.964,886.344L694.531,886.344ZM380.738,847.693C381.612,854.309 381.903,861.621 381.903,873.982L381.903,966.257C381.903,978.793 381.612,984.712 380.738,992.547L411.171,992.547C410.297,983.319 410.006,976.703 410.006,966.257L410.006,873.982C410.006,862.143 410.297,855.005 411.171,847.693L380.738,847.693ZM229.01,925.169C231.486,913.678 237.747,908.107 248.085,908.107C258.133,908.107 264.394,914.026 266.433,925.169L229.01,925.169ZM449.903,925.169C452.379,913.678 458.64,908.107 468.979,908.107C479.026,908.107 485.287,914.026 487.326,925.169L449.903,925.169ZM923.288,925.169C925.763,913.678 932.024,908.107 942.363,908.107C952.41,908.107 958.671,914.026 960.71,925.169L923.288,925.169ZM117.326,907.933L117.326,876.942L140.187,876.942C149.215,876.942 153.875,881.991 153.875,891.741C153.875,901.665 148.633,907.933 140.041,907.933L117.326,907.933ZM694.968,847.693L694.968,873.808L724.527,873.808L724.527,847.693L694.968,847.693ZM377.85,764.559L379.519,751.666C370.37,753.519 363.014,750.509 357.092,743.611C348.26,739.956 332.475,725.4 317.859,712.679C309.95,718.16 302.054,722.05 294.191,721.507L290.149,724.692L314.398,728.428C318.334,725.505 320.895,726.713 322.467,730.888C336.001,733.291 343.88,739.474 346.856,748.933L362.295,760.704L370.75,764.559L377.85,764.559ZM163.439,210.614C137.325,250.001 117.229,315.785 111.411,342.071C109.151,352.278 122.592,368.325 128.532,368.325C134.472,368.325 142.131,347.509 147.053,342.071C149.901,338.924 153.884,336.41 158.062,335.693C162.69,334.9 180.2,325.091 200.063,301.076C206.626,293.142 219.919,278.184 224.505,268.747C224.505,268.747 224.119,264.57 220.439,259.601C216.218,253.902 208.568,246.996 207.483,241.353C206.634,236.931 209.872,236.068 210.85,229.235C212.492,217.769 212.515,200.059 210.85,197.709C206.196,191.138 197.518,210.611 193.88,217.355C191.685,221.424 177.949,220.45 170.173,217.355C164.148,214.957 163.439,210.614 163.439,210.614ZM36.838,123.223C36.477,117.359 51.255,119.209 54.139,120.088C56.814,120.904 52.343,126.349 54.139,128.498C56.786,131.664 63.793,140.364 70.023,139.088C73.584,138.358 74.969,131.076 80.049,126.335C84.727,121.97 89.644,120.088 91.653,120.088C95.846,120.088 89.273,133.797 91.653,139.088C94.034,144.378 105.937,146.266 105.937,151.831C105.937,156.496 105.882,162.141 103.14,170.179C101.006,176.435 96.221,185.286 95.179,188.857C94.018,192.838 94.805,199.315 91.653,200.79C90.145,201.496 86.302,198.222 83.738,197.709C81.297,197.22 76.885,195.952 76.27,197.709C75.656,199.466 82.808,206.1 80.049,208.251C77.29,210.401 63.66,216.196 59.716,210.614C37.777,179.554 37.768,138.311 36.838,123.223ZM389.09,128.498C381.347,128.861 364.424,136.061 364.93,142.574C365.209,146.168 377.986,167.58 377.986,167.58C377.986,167.58 388.271,166.287 392.124,167.58C400.718,170.464 415.378,175.995 420.246,161.631C421.27,158.61 418.136,147.394 411.385,140.395C404.312,133.062 396.832,128.134 389.09,128.498Z" style="fill:rgb(5,3,3);stroke:black;stroke-width:0.3px;"/>
        <g transform="matrix(1.29569,0,0,1.41313,-1692.52,-5380.55)">
            <path d="M1602.45,4033.99L1605.78,4034.06L1606.24,4034.08L1606.38,4034.08C1607.02,4034.08 1607.66,4034.07 1608.29,4034.05C1646.9,4033.18 1664.35,4014.64 1672.52,4001.36L1681.02,3992.5C1697.43,3991.96 1712.42,3989.12 1720.52,3986.24L1725.44,3984.31L1761.44,3981.27C1764.74,3980.99 1767.97,3980.52 1771.12,3979.86C1781.07,3994.22 1796.63,4005.26 1815.68,4010.08L1876.12,4025.35L1869.28,4015.8C1872.05,4015.66 1874.87,4015.4 1877.73,4015.02C1891.04,4023.97 1912.53,4032.28 1942.66,4025.21C1951.37,4023.17 2002.88,4008.08 2023.6,4001.6C2027.98,4000.23 2031.98,3998.74 2035.61,3997.18L2073.71,4000.69C2078.49,4001.51 2083.69,4001.95 2089.46,4001.94L2089.8,4001.95L2089.8,4001.96L2089.8,4001.95L2089.8,4001.95L2089.8,4001.95L2089.8,4001.95L2089.8,4001.95L2089.98,4001.95L2089.98,4001.95L2090.24,4001.95L2089.98,4001.95C2089.98,4001.95 2089.8,4001.96 2090.43,4001.95L2090.24,4001.95L2091.5,4001.94C2091.37,4001.94 2091.23,4001.93 2091.06,4001.93C2132.18,4001.93 2166.09,3972.37 2168.14,3934.71C2168.42,3929.66 2168.11,3924.69 2167.25,3919.88C2172.66,3912.9 2178.33,3902.88 2180.65,3888.95C2198.85,3875.82 2203.79,3860.05 2206.27,3851.53C2214,3824.99 2210.84,3784.68 2158.07,3765.63C2142.82,3760.13 2104.58,3757.3 2080.07,3765.69C2071.53,3768.61 2064.04,3772.37 2057.56,3776.78C2046.67,3777 2035.15,3779.26 2023.54,3784.87L2019.97,3780.71C2014.77,3773.95 2010.35,3769.4 2007.85,3767.11C1977.24,3739.14 1945.89,3744.91 1931.16,3748.82C1918.95,3752.05 1907.6,3757.63 1897.96,3766.63C1895.05,3764.39 1892.11,3762.4 1889.28,3760.71C1876.28,3752.99 1863.48,3749.57 1854.26,3748.32C1832.68,3745.41 1815.09,3750.16 1801.22,3758.13C1797.9,3759.37 1794.74,3760.61 1791.58,3761.67L1783.51,3759.66L1775.49,3757.86C1750.98,3748.68 1708.08,3742.81 1689.7,3744.92C1660.52,3748.28 1643.31,3762.02 1633.71,3773.68L1631.55,3770.33C1619.5,3752.47 1602.46,3742.18 1581.4,3738.22C1569.54,3735.99 1542.23,3731.5 1513.75,3755.31C1497.43,3750.82 1478.81,3749.59 1458.93,3754.02C1445.11,3757.09 1429.83,3762.84 1414.88,3773.7C1414.88,3773.7 1317.01,3778.97 1317.01,3778.97C1308.43,3779.43 1299.99,3781.2 1292.05,3784.21C1258.68,3796.86 1250.37,3819.32 1246.84,3831.71C1246.3,3833.61 1244.9,3852.2 1251.52,3871.89C1242.81,3884.86 1237.8,3900.88 1238.63,3918.82L1237.11,3921.53C1227.82,3938.88 1224.58,3956.98 1226.04,3971.56C1227.98,3990.95 1236.58,4007.75 1251.98,4021.38C1264.52,4032.48 1284.46,4044.77 1319.29,4044.77L1320.77,4044.76C1330.68,4044.62 1357.5,4040.16 1373.31,4032.84C1376.12,4036.57 1379.31,4040.19 1382.84,4043.68C1400.67,4061.29 1428.53,4073.78 1451.63,4078.63C1457.6,4080.05 1463.85,4080.84 1470.3,4080.9L1470.89,4080.92L1470.89,4080.92L1470.89,4080.92L1470.89,4080.92L1470.89,4080.91L1470.89,4080.91L1470.89,4080.92L1470.89,4080.92C1470.92,4080.92 1471.13,4080.92 1471.13,4080.92C1471.64,4080.92 1472.16,4080.91 1472.67,4080.9C1499.97,4080.4 1520.41,4069.8 1534.33,4055.87C1545.7,4044.48 1551.86,4032.92 1554.86,4021.75L1555.33,4021.67C1561.41,4023.77 1568.65,4025.98 1573.71,4027.48L1573.97,4027.59L1576.25,4028.47L1576.58,4028.6L1576.93,4028.73C1579.89,4029.86 1582.93,4030.8 1586.05,4031.57L1587.25,4031.88L1588.15,4032.07L1589.57,4032.41L1590.52,4032.57L1590.96,4032.66L1593.99,4033.15L1595.03,4033.33L1596.39,4033.47L1598.56,4033.72L1599.6,4033.79L1600.59,4033.89L1601.47,4033.92L1602.45,4033.99ZM1477.61,4034.51L1470.75,4035.64L1470.89,4080.56L1470.94,4080.64C1471.39,4078.06 1474.76,4058.39 1477.61,4034.51ZM1319.29,4044.77L1319.29,4044.76L1319.29,4044.76L1319.29,4044.77ZM1324.91,4008.11C1322.38,4027.07 1319.82,4041.75 1319.36,4044.36L1319.29,4044.25L1319.29,4006.43L1324.91,4008.11ZM1470.6,3988L1470.66,4004.69L1473.18,4004.99L1473.82,4005.05L1476.32,4005.22L1477.84,4005.31L1480.51,4005.37L1480.6,4004.11L1477.43,3999.25C1475.98,3996.9 1474.52,3994.55 1473.07,3992.2L1470.6,3988ZM2090.21,3954.05L2089.59,3954.88L2089.8,4001.69L2089.84,4001.74C2090.26,3999.31 2094.12,3976.68 2097.06,3950.2L2093.72,3949.8L2093.4,3949.74L2090.21,3954.05ZM1972.21,3995.32C1975.48,3996.89 1979.49,3998.53 1984.32,3999.85L1984.45,3999.7C1980.41,3998.59 1976.5,3997.18 1972.76,3995.49L1972.21,3995.32ZM1319.29,3974.62L1319.29,3977.21L1319.58,3977.26L1320.27,3977.31L1319.56,3975.34L1319.29,3974.62ZM1455.35,3974.1L1459.43,3974.36L1462.72,3974.43L1462.76,3974.43L1461.72,3972.84L1454.13,3973.98L1454.87,3974.07L1455.35,3974.1ZM1319.29,3973.25L1319.31,3973.25L1319.29,3973.23L1319.29,3973.25ZM1288.87,3915.97C1285.08,3918.4 1281.82,3920.88 1279.71,3923.08L1277.2,3925.85C1274.73,3933.14 1274.57,3941.73 1276.02,3950.9C1284.29,3958.51 1293.93,3966.3 1303.38,3971.45L1318.76,3973.19L1318.32,3972C1312.99,3965.87 1308.15,3958.46 1304.33,3950.34C1301.93,3948.33 1299.39,3945.95 1296.53,3943.09C1292.56,3939.12 1282.04,3923.2 1282.04,3923.2C1282.04,3923.2 1288.7,3928.32 1297.25,3934.64C1294.3,3928.66 1291.43,3922.37 1288.87,3915.97ZM1278.07,3961.1L1279.34,3965.61L1282.09,3967.23C1283.16,3967.79 1284.24,3968.36 1285.32,3968.93L1286.63,3969.54L1287.36,3969.63L1284.24,3965.76L1277.13,3956.93L1278.07,3961.1ZM1689.47,3945.65L1688.59,3946.19C1691.62,3949.76 1695.32,3953.07 1699.76,3956.23L1700.43,3956.28L1701.01,3956.29L1701.01,3956.29L1696.95,3950.19L1692.67,3943.42L1689.47,3945.65ZM1714.87,3918.15C1714.26,3919.22 1713.65,3920.29 1713.05,3921.36L1711.7,3923.45C1713.34,3934.4 1712.15,3945.53 1708.23,3955.92C1709.74,3955.77 1711.21,3955.58 1712.65,3955.35C1719.18,3945.15 1722.12,3934.5 1722.75,3923.87C1722.89,3921.55 1722.97,3918.76 1722.82,3915.64L1719.99,3915.44L1716.43,3915.01L1714.87,3918.15ZM1295.78,3919.25L1295.77,3919.09L1295.66,3918.2L1295.78,3919.25ZM1731.14,3915.99L1731.14,3915.98L1731.14,3915.98L1731.14,3915.99ZM1262.39,3900.78L1259.46,3906.54L1257.67,3910.62C1258.81,3907.38 1260.37,3904.09 1262.39,3900.78ZM1252.81,3875.47C1247.73,3884.91 1244.88,3895.54 1244.9,3906.78L1244.96,3908.94C1250.46,3901.03 1256.32,3894.08 1260.11,3889.82C1257.07,3885.18 1254.68,3880.32 1252.81,3875.47ZM1531.4,3862.42C1530.67,3863.96 1530.01,3865.52 1529.4,3867.1L1529.9,3867.86L1532.98,3867.56L1533.46,3866.26L1533.54,3866.08L1531.4,3862.42ZM1730.97,3774.49L1731.03,3819.52C1734.63,3820.45 1738.29,3821.5 1741.94,3822.61C1742.96,3796.43 1740.77,3774.86 1730.97,3774.49ZM2038.18,3791.74L2038.12,3791.79L2035.49,3792.15L2032.17,3792.76C2034.07,3792.35 2036.07,3792 2038.18,3791.74ZM1856.69,3766.58C1861.51,3767.35 1864.38,3773.57 1865.89,3783.01L1860.6,3781.38L1856.71,3780.21L1856.69,3766.58ZM1403.32,3779.97L1400.28,3780.38L1400.03,3780.45L1403.63,3779.98L1406.55,3779.74L1406.79,3779.7L1403.32,3779.97ZM2088.03,3779.04L2088.04,3779.04L2088.04,3779.04L2088.03,3779.04ZM1726.87,3774.6L1728.44,3774.53L1728.19,3774.54L1726.96,3774.59L1726.87,3774.6ZM1852.13,3766.63L1852.13,3766.64L1853.06,3766.6L1852.13,3766.63Z"/>
        </g>
        <g transform="matrix(1.30571,0,0,1.32641,-1762.07,-5079.13)">
            <path d="M1402.78,3775.26C1402.78,3775.26 1397.03,3776.42 1397.03,3776.42L1396.03,3776.65L1395.87,3776.68L1395.81,3776.7C1373.58,3781.55 1355.55,3795.61 1345.27,3814.1C1324.62,3814.86 1306.06,3823.07 1290.66,3841.34C1284.72,3848.39 1272.92,3862.46 1272.92,3889.93C1272.92,3902.47 1278.09,3929.17 1302.73,3954.99C1304.85,3957.21 1307.23,3959.57 1309.85,3962.02C1316.29,3973.19 1324.47,3982.5 1333.02,3988.39C1338.72,3992.3 1345.37,3995.85 1352.97,3998.55L1358.18,4002.63C1360.49,4012.08 1364.5,4021.42 1370.28,4030.47C1384.98,4053.46 1418.01,4073.24 1446.22,4081.44C1453.09,4083.78 1460.4,4085.17 1467.99,4085.47L1468.03,4085.47L1470.89,4085.55L1470.89,4085.55L1470.89,4085.55L1470.89,4085.55L1470.89,4085.54L1470.89,4085.54L1470.89,4085.55L1470.9,4085.55C1470.92,4085.55 1471.13,4085.54 1471.13,4085.54C1471.61,4085.54 1472.08,4085.54 1472.55,4085.53C1498.87,4085.05 1518.61,4074.36 1532.02,4060.93C1543.41,4049.54 1549.87,4037.88 1553.3,4026.55L1555.86,4026.12C1562.24,4028.39 1570.37,4030.86 1575.8,4032.44L1576.41,4032.7L1576.79,4032.87L1577.04,4032.96L1578.82,4033.71L1580.1,4034.14L1580.25,4034.2L1581.23,4034.52L1584.06,4035.47L1585.98,4035.97L1587.39,4036.36L1588.14,4036.53L1589.44,4036.87L1590.49,4037.06L1591.07,4037.19L1593.66,4037.65L1594.94,4037.88L1596.2,4038.02L1598.62,4038.32L1599.6,4038.39L1600.55,4038.5L1601.44,4038.53L1602.48,4038.61L1605.81,4038.69L1606.24,4038.7L1606.38,4038.7C1606.97,4038.7 1607.56,4038.7 1608.15,4038.68C1644.94,4037.85 1662.3,4019.49 1670.62,4006L1679.09,3997.17C1695.46,3996.81 1710.6,3994.03 1718.63,3991.17L1724.08,3989.03L1728.57,3988.65L1729.88,3995.09C1730,3995.68 1730.34,3996.36 1730.9,3997.1C1747.05,4051.92 1782.96,4050.31 1815.48,4032.09C1828.54,4033.64 1841.19,4033.15 1851.82,4029.4C1864.22,4038.96 1879.69,4044.81 1896.52,4045.32L1898.03,4045.38C1898.29,4045.38 1898.55,4045.38 1898.8,4045.38L1898.8,4045.38L1898.8,4045.38L1898.8,4045.38L1898.94,4045.38C1899.77,4045.38 1900.6,4045.37 1901.43,4045.34C1905.8,4045.2 1912.39,4044.79 1920.6,4042.45L1921.65,4042.6L1922.96,4042.71L1923.19,4042.74L1923.86,4042.79L1926.07,4042.98L1926.73,4043L1927.03,4043.02L1928.64,4043.06L1930.4,4043.12L1930.81,4043.12L1930.81,4043.12L1930.81,4043.12L1930.81,4043.12L1930.81,4043.12L1930.81,4043.12L1930.81,4043.12L1930.91,4043.12C1931.92,4043.12 1932.92,4043.1 1933.93,4043.06C1949.78,4042.45 1968.97,4038.26 1987.93,4019.3C1991.77,4015.46 1995.13,4011.28 1997.98,4006.81L1998.89,4006.93C2000.18,4007.02 2001.46,4007.12 2002.75,4007.21L2006.2,4007.3L2006.34,4007.3L2006.34,4007.31L2006.34,4007.3L2006.34,4007.3L2006.34,4007.3L2006.34,4007.3L2006.34,4007.3L2006.45,4007.31C2006.48,4007.31 2006.65,4007.31 2006.65,4007.31C2007.32,4007.31 2007.99,4007.3 2008.66,4007.28C2018.71,4007.02 2028.35,4005.27 2037.51,4001.96L2074.81,4005.39C2079.3,4006.16 2084.18,4006.58 2089.57,4006.57L2089.8,4006.58L2089.8,4006.58L2089.8,4006.58L2089.8,4006.58L2089.8,4006.57L2089.8,4006.57L2089.8,4006.58L2089.98,4006.58L2089.98,4006.58L2090.2,4006.58L2089.98,4006.58C2089.98,4006.58 2089.8,4006.58 2090.38,4006.58L2090.2,4006.58L2091.38,4006.57C2091.29,4006.57 2091.18,4006.56 2091.06,4006.56C2131.97,4006.56 2165.66,3974.91 2167.57,3934.69C2168.3,3919.22 2164.24,3904.59 2156.63,3892.23C2165.62,3878.84 2173.04,3858.73 2174.28,3847.91C2176.73,3826.6 2170.21,3811.74 2166.95,3805.18C2155.23,3781.62 2136.94,3770.75 2119.1,3765.74C2102.78,3761.15 2082.85,3760.05 2061,3772.18L2059.61,3772.1C2048.6,3772.1 2036.9,3774.28 2025.06,3780.13C1991.24,3774.79 1945.41,3768.7 1933.03,3767.72C1921.96,3766.84 1913.74,3767.87 1908.67,3768.9L1907.09,3769.12L1906.04,3769.34C1879.97,3772.24 1827.55,3780.21 1798.9,3790C1791.75,3781.76 1781.57,3773.85 1766.84,3768.49C1757.95,3765.26 1721.36,3762.79 1705.69,3764.75C1688.32,3766.93 1675.19,3773.32 1665.32,3781.33C1662.76,3780.05 1660.06,3778.85 1657.21,3777.7C1640.94,3771.14 1596.77,3765.34 1547.46,3765.21C1521.1,3765.14 1493.24,3766.37 1468.3,3768.25C1451.76,3757.61 1432.16,3756.27 1410.56,3773.68L1402.78,3775.26ZM1477.25,4039.11L1470.77,4040.18L1470.89,4085.16L1470.94,4085.24C1471.37,4082.6 1474.48,4063.18 1477.25,4039.11ZM1898.85,4036.52L1898.8,4045.17L1898.83,4045.21L1899.82,4038.89L1900.09,4037.01L1898.89,4036.54L1898.85,4036.52ZM1931.18,4038.67L1930.82,4038.82L1930.81,4042.96L1930.83,4042.99L1931.52,4038.51L1931.18,4038.67ZM1932.52,4031.54L1932.58,4031.14L1930.84,4031.45L1930.84,4031.79L1931.03,4031.77L1932.52,4031.54ZM1470.64,3991.43L1470.69,4009.27L1473.21,4009.58L1474,4009.66L1476.45,4009.85L1477.96,4009.94L1480.13,4009.99L1480.26,4008.09L1477.46,4003.48C1476.01,4000.97 1474.57,3998.47 1473.12,3995.97L1470.64,3991.43ZM2007.57,3999.2L2006.3,3999.08L2006.34,4006.81L2006.4,4006.91L2007.34,4000.82L2007.57,3999.2ZM2096.18,3940.41L2093.07,3942.43C2092.19,3946.03 2091.03,3949.57 2089.59,3953.02L2089.59,3953.39L2093.64,3951.39L2089.61,3956.85L2089.8,4006.29L2089.84,4006.35C2090.32,4003.37 2095.29,3972.18 2098.24,3938.97L2096.18,3940.41ZM1456.2,3978.76L1459.57,3978.98L1462.73,3979.06L1462.76,3979.06L1461.74,3977.4L1454.01,3978.56L1454.93,3978.67L1456.2,3978.76ZM2012.61,3948.32L2008.02,3949.81C2008.69,3952.71 2009.18,3955.63 2009.48,3958.55L2011.39,3960.03L2012.6,3960.75L2012.75,3959.49L2013.92,3948.3L2013.5,3948.09L2012.61,3948.32ZM1714.76,3919.38C1713.75,3921.51 1712.63,3923.56 1711.42,3925.55C1712.65,3937.5 1710.95,3949.55 1706.48,3960.67L1708.43,3960.5L1710.62,3960.19C1718.16,3948.62 1721.43,3936.45 1722.14,3924.42C1722.22,3923.16 1722.28,3921.75 1722.29,3920.22L1720.55,3920.09L1714.76,3919.38ZM1691.02,3948.04L1689.23,3949.31C1692.29,3953.21 1696.04,3956.82 1700.58,3960.23C1699.5,3958.53 1696.49,3953.73 1692.52,3946.84L1691.02,3948.04ZM1544.19,3918.75L1544.46,3918.83L1544.76,3918.44L1544.57,3918.15L1544.19,3918.75ZM1735.81,3848.55L1731.07,3853.62L1731.13,3909.78L1733.01,3908.39L1734.66,3897.02L1735.33,3891.98C1731.11,3880.02 1729.97,3865.7 1735.81,3848.55ZM1720.41,3902.3L1720.81,3902.99L1720.54,3901.71L1720.41,3902.3ZM1526.59,3899.96L1526.22,3899.44L1526.49,3901.5L1526.53,3900.59L1526.59,3899.96ZM1596.89,3888.45L1594.69,3888.77L1594.6,3888.83L1596.87,3888.5L1598.46,3888.34L1598.51,3888.31L1596.89,3888.45ZM1538.99,3873.47L1539.21,3876.02L1541.22,3875.82L1539.73,3874.2L1538.99,3873.47ZM1537.19,3852.63L1537.54,3856.68L1538.24,3855.32L1538.03,3854.74L1537.19,3852.63ZM1728.56,3769.91L1727.14,3769.97C1720.79,3770.38 1714.52,3771.75 1708.61,3773.89C1707.02,3774.47 1705.45,3775.09 1703.9,3775.78C1695.24,3780.61 1690.41,3788.12 1688.36,3797.25C1692.59,3801.36 1696.06,3805.7 1698.88,3810.18L1699.01,3810.18L1700.98,3810.13L1699.38,3810.17L1701.28,3810.13L1701.78,3810.18L1701.78,3810.14C1709.94,3810.19 1720.28,3812.13 1731.03,3815.01L1731.06,3837.1L1740.95,3836.26L1741.03,3836.11L1741.13,3835.91L1741.47,3831.06L1742.02,3818.21C1738.36,3817.06 1734.67,3815.98 1731.03,3815.01L1730.98,3769.86L1730.69,3769.83L1728.56,3769.91ZM1730.98,3769.86C1740.4,3770.19 1742.76,3791.61 1742.02,3818.21L1745.67,3819.36L1751.14,3821.21C1757.27,3814.01 1765.81,3806.34 1777.29,3799.73C1772.49,3792.17 1765.65,3784.68 1755.79,3778.02C1753.76,3776.65 1751.59,3775.46 1749.39,3774.36C1746.43,3772.89 1743.32,3771.56 1740.12,3770.78C1737.86,3770.22 1735.51,3769.97 1733.17,3769.87C1732.45,3769.84 1731.72,3769.83 1730.98,3769.83L1730.98,3769.86ZM2050.13,3805.19L2050,3818.66L2052.9,3818.79C2054.41,3818.94 2055.93,3819.09 2057.44,3819.24L2059.91,3815.52C2059.8,3813.69 2059.68,3811.85 2059.56,3810.01L2059.2,3806.75C2056.02,3806.04 2052.77,3805.43 2050.13,3805.19ZM2063.49,3787.75C2082.57,3793.56 2094.77,3801.99 2100.04,3806.34L2099.91,3806C2088.47,3795.51 2076.1,3790.01 2063.49,3787.75ZM2050.32,3786.68L2050.16,3802.44L2058.46,3805.1L2059.05,3805.3C2057.72,3794.92 2055.01,3787.9 2050.32,3786.68ZM1803.05,3795.23L1803.06,3795.25L1803.6,3795.18L1803.05,3795.23ZM1805.37,3795.03L1805.27,3795.04L1805.46,3795.03L1805.37,3795.03ZM1401.34,3775.83L1399.63,3776.17L1395.65,3777.32C1398.5,3776.62 1402.1,3775.9 1406.33,3775.17L1401.34,3775.83ZM1399.52,3775.93L1396.03,3776.65L1395.81,3776.7L1395.53,3776.78L1396.22,3776.61L1399.62,3775.97L1399.71,3775.95L1400.28,3775.82L1399.52,3775.93ZM1403.43,3775.37L1401.39,3775.66L1401.08,3775.75L1403.77,3775.38L1406.55,3775.13L1406.85,3775.08L1403.43,3775.37ZM2087.72,3774.4L2087.72,3774.4L2087.72,3774.4L2087.72,3774.4ZM1727.94,3769.93C1722.77,3770.13 1718.18,3770.77 1714.11,3771.79C1718.32,3770.82 1722.68,3770.2 1727.14,3769.97L1727.3,3769.95L1727.94,3769.93L1728.56,3769.91L1730.05,3769.84L1727.94,3769.93ZM1917.38,3768.15L1918.78,3768.09C1917.8,3768.11 1916.69,3768.14 1915.47,3768.21L1915.2,3768.22L1913.05,3768.4L1912.29,3768.46L1912.22,3768.47L1911.01,3768.57L1908.67,3768.9L1907.9,3769.05L1907.21,3769.15L1906.53,3769.28L1906.04,3769.34L1903.45,3769.87L1903.28,3769.92L1903.47,3769.87L1906.53,3769.28L1907.08,3769.22L1907.9,3769.05L1911.01,3768.61L1911.57,3768.56L1912.22,3768.47L1913.05,3768.4L1915.47,3768.21L1917.38,3768.15ZM1917.38,3768.15L1914.87,3768.26L1911.57,3768.56L1908.18,3769.06L1907.82,3769.14C1913.52,3768.48 1917.77,3768.13 1919.96,3768.09C1919.86,3768.09 1919.77,3768.08 1919.67,3768.08L1917.38,3768.15Z"/>
        </g>
        <g transform="matrix(0.993045,0,0,0.995654,4.96522,3.78206)">
            <path d="M1082,1080.92L1082,-3.799L-5,-3.799L-5,1080.92L1082,1080.92ZM35,1040.92L37.785,1040.92C36.846,1040.04 35.917,1039.15 35,1038.25L35,1040.92ZM1042,100L1042,960.382C1042,980.703 1033.93,1000.19 1019.56,1014.56C1005.19,1028.93 985.703,1037 965.382,1037L129.435,1037C104.39,1037 80.37,1027.05 62.659,1009.34C44.949,991.63 35,967.61 35,942.565C35,724.332 35,297.581 35,100.518C35,64.997 63.795,36.201 99.316,36.201L978.202,36.201C1013.44,36.201 1042,64.765 1042,100Z"/>
        </g>
    </g>
    <defs>
        <linearGradient id="_Linear1" x1="0" y1="0" x2="1" y2="0.00135998" gradientUnits="userSpaceOnUse" gradientTransform="matrix(-443.98,872.914,-872.914,-443.98,593.115,-4.98022)"><stop offset="0" style="stop-color:rgb(121,1,187);stop-opacity:1"/><stop offset="0.17" style="stop-color:rgb(142,5,134);stop-opacity:1"/><stop offset="0.38" style="stop-color:rgb(194,15,4);stop-opacity:1"/><stop offset="0.81" style="stop-color:rgb(237,205,116);stop-opacity:1"/><stop offset="1" style="stop-color:rgb(252,245,130);stop-opacity:1"/></linearGradient>
        <linearGradient id="_Linear2" x1="0" y1="0" x2="1" y2="0.00242084" gradientUnits="userSpaceOnUse" gradientTransform="matrix(-14.0869,-323.827,323.827,-14.0869,363.515,570.718)"><stop offset="0" style="stop-color:rgb(213,128,63);stop-opacity:1"/><stop offset="1" style="stop-color:rgb(255,204,0);stop-opacity:1"/></linearGradient>
        <linearGradient id="_Linear3" x1="0" y1="0" x2="1" y2="0.00242084" gradientUnits="userSpaceOnUse" gradientTransform="matrix(-14.0869,-323.827,323.827,-14.0869,363.515,570.718)"><stop offset="0" style="stop-color:rgb(213,128,63);stop-opacity:1"/><stop offset="1" style="stop-color:rgb(255,204,0);stop-opacity:1"/></linearGradient>
        <linearGradient id="_Linear4" x1="0" y1="0" x2="1" y2="-0.489805" gradientUnits="userSpaceOnUse" gradientTransform="matrix(-238.353,80.6415,-468.629,-41.0158,802.391,483.359)"><stop offset="0" style="stop-color:rgb(121,1,187);stop-opacity:1"/><stop offset="0.17" style="stop-color:rgb(142,5,134);stop-opacity:1"/><stop offset="0.38" style="stop-color:rgb(194,15,4);stop-opacity:1"/><stop offset="0.81" style="stop-color:rgb(237,205,116);stop-opacity:1"/><stop offset="1" style="stop-color:rgb(252,245,130);stop-opacity:1"/></linearGradient>
        <linearGradient id="_Linear5" x1="0" y1="0" x2="1" y2="-0.489365" gradientUnits="userSpaceOnUse" gradientTransform="matrix(-325.813,111.526,-640.584,-56.7239,467.113,296.403)"><stop offset="0" style="stop-color:rgb(121,1,187);stop-opacity:1"/><stop offset="0.17" style="stop-color:rgb(142,5,134);stop-opacity:1"/><stop offset="0.38" style="stop-color:rgb(194,15,4);stop-opacity:1"/><stop offset="0.81" style="stop-color:rgb(237,205,116);stop-opacity:1"/><stop offset="1" style="stop-color:rgb(252,245,130);stop-opacity:1"/></linearGradient>
        <linearGradient id="_Linear6" x1="0" y1="0" x2="1" y2="-0.489939" gradientUnits="userSpaceOnUse" gradientTransform="matrix(-251,84.6148,-493.494,-43.0366,787.661,184.099)"><stop offset="0" style="stop-color:rgb(121,1,187);stop-opacity:1"/><stop offset="0.17" style="stop-color:rgb(142,5,134);stop-opacity:1"/><stop offset="0.38" style="stop-color:rgb(194,15,4);stop-opacity:1"/><stop offset="0.81" style="stop-color:rgb(237,205,116);stop-opacity:1"/><stop offset="1" style="stop-color:rgb(252,245,130);stop-opacity:1"/></linearGradient>
    </defs>
</svg>
