<?xml version="1.0" encoding="UTF-8" standalone="no"?>
<!DOCTYPE svg PUBLIC "-//W3C//DTD SVG 1.1//EN" "http://www.w3.org/Graphics/SVG/1.1/DTD/svg11.dtd">
<svg width="100%" height="100%" viewBox="0 0 1080 1080" version="1.1" xmlns="http://www.w3.org/2000/svg" xmlns:xlink="http://www.w3.org/1999/xlink" xml:space="preserve" xmlns:serif="http://www.serif.com/" style="fill-rule:evenodd;clip-rule:evenodd;stroke-linejoin:round;stroke-miterlimit:2;">
    <rect x="-1" y="0" width="1081" height="1080.92" style="fill:url(#_Linear1);"/>
    <rect x="-1" y="0" width="1081" height="1080.92" style="fill:url(#_Linear2);"/>
    <g id="color">
        <path d="M1079.44,866.289L1080,866.354L1080,1080.92L-1,1080.92L-1,81.296L0,81.337L0,0L1079.44,0L1079.44,866.289ZM294.099,949.195C293.953,947.454 293.953,946.409 293.953,945.713C293.516,935.789 292.934,928.477 291.769,922.905C286.673,896.964 270.801,882.165 248.085,882.165C220.274,882.165 201.781,904.973 201.781,939.445C201.781,956.681 206.44,971.48 215.032,981.926C223.331,991.85 234.544,996.725 248.813,996.725C263.229,996.725 274.878,991.676 283.178,981.926C287.255,977.052 289.439,973.047 292.788,963.994L267.452,955.463C266.287,959.989 265.268,961.905 263.083,964.342C259.298,968.52 254.201,970.784 248.377,970.784C236.873,970.784 230.03,963.297 228.573,949.195L294.099,949.195ZM988.376,949.195C988.231,947.454 988.231,946.409 988.231,945.713C987.794,935.789 987.211,928.477 986.046,922.905C980.95,896.964 965.078,882.165 942.363,882.165C914.551,882.165 896.058,904.973 896.058,939.445C896.058,956.681 900.718,971.48 909.309,981.926C917.609,991.85 928.821,996.725 943.091,996.725C957.506,996.725 969.155,991.676 977.455,981.926C981.532,977.052 983.717,973.047 987.066,963.994L961.729,955.463C960.564,959.989 959.545,961.905 957.361,964.342C953.575,968.52 948.478,970.784 942.654,970.784C931.151,970.784 924.307,963.297 922.851,949.195L988.376,949.195ZM514.992,949.195C514.846,947.454 514.846,946.409 514.846,945.713C514.41,935.789 513.827,928.477 512.662,922.905C507.566,896.964 491.694,882.165 468.979,882.165C441.167,882.165 422.674,904.973 422.674,939.445C422.674,956.681 427.334,971.48 435.925,981.926C444.225,991.85 455.437,996.725 469.707,996.725C484.122,996.725 495.771,991.676 504.071,981.926C508.148,977.052 510.332,973.047 513.681,963.994L488.345,955.463C487.18,959.989 486.161,961.905 483.977,964.342C480.191,968.52 475.094,970.784 469.27,970.784C457.767,970.784 450.923,963.297 449.467,949.195L514.992,949.195ZM612.406,918.553C607.601,895.397 592.021,882.165 569.596,882.165C541.202,882.165 522.855,904.45 522.855,939.271C522.855,956.333 527.515,971.654 535.96,981.578C543.969,991.328 555.909,996.551 569.888,996.551C586.779,996.551 600.029,989.413 607.31,976.529C610.077,971.48 611.824,966.779 613.426,959.293L586.633,954.244C586.051,958.248 585.323,959.989 584.012,962.253C581.1,967.128 575.858,969.913 570.179,969.913C558.53,969.913 551.104,957.726 551.104,938.923C551.104,919.772 558.093,908.629 569.888,908.629C575.13,908.629 579.207,910.718 582.119,914.723C584.012,917.334 584.886,919.772 586.196,924.995L612.406,918.553ZM636.287,886.344L631.045,886.344C625.948,886.344 622.308,885.995 618.085,885.299L618.085,914.374C622.308,913.678 626.094,913.33 630.753,913.33L636.287,913.33L636.287,966.605C636.287,978.444 638.325,984.364 643.858,989.413C648.518,993.591 655.362,995.506 665.263,995.506C673.126,995.506 678.805,994.462 685.358,992.024L683.174,965.561C679.533,967.824 676.767,968.695 672.981,968.695C670.214,968.695 667.884,967.998 666.283,966.779C664.39,965.212 663.662,962.775 663.662,957.9L663.662,913.33L669.777,913.33C675.019,913.33 678.805,913.678 683.174,914.374L683.174,885.473C678.66,886.17 675.311,886.344 668.904,886.344L663.662,886.344L663.662,882.688C663.662,874.331 664.099,865.974 664.827,858.835L635.122,858.835C635.995,867.018 636.287,873.982 636.287,882.688L636.287,886.344ZM770.395,992.547C769.522,984.016 769.23,977.226 769.23,966.257L769.23,931.088C773.307,919.249 780.006,912.459 787.869,912.459C791.363,912.459 794.276,914.026 795.877,916.812C797.77,919.772 798.353,923.079 798.353,930.392L798.353,966.257C798.353,977.4 798.061,984.712 797.188,992.547L827.475,992.547C826.601,984.19 826.31,976.877 826.31,966.431L826.31,930.914C829.95,919.249 836.649,912.285 844.075,912.285C852.375,912.285 855.578,917.334 855.578,930.392L855.578,966.257C855.578,978.096 855.287,984.364 854.413,992.547L884.7,992.547C883.827,984.364 883.536,977.226 883.536,966.431L883.536,923.254C883.536,896.964 872.906,883.384 852.083,883.384C839.415,883.384 830.533,887.911 821.505,898.531C819.612,894.178 818.156,892.089 815.535,889.826C810.73,885.647 804.468,883.558 796.897,883.558C785.393,883.558 776.511,888.085 769.085,897.835L769.085,896.093C769.23,894.352 769.23,894.352 769.23,893.656L769.23,886.344L740.399,886.344C741.273,893.134 741.564,899.401 741.564,912.633L741.564,966.257C741.564,977.226 741.273,984.538 740.399,992.547L770.395,992.547ZM319.435,913.156L319.435,966.257C319.435,977.574 319.144,984.016 318.27,992.547L348.558,992.547C347.684,984.016 347.393,978.27 347.393,966.257L347.393,913.156L351.907,913.156C360.061,913.156 364.866,913.504 370.982,914.374L370.982,885.125C365.594,885.821 357.731,886.344 351.615,886.344L347.393,886.344L347.393,881.991C347.393,872.938 350.159,869.456 357.294,869.456C362.828,869.456 367.196,870.849 371.71,873.808L376.224,848.215C368.215,845.604 362.245,844.559 354.091,844.559C330.356,844.559 319.435,855.179 319.435,878.161L319.435,886.344L315.504,886.344C309.97,886.344 303.272,885.821 299.195,885.125L299.195,914.374C304.146,913.504 308.66,913.156 315.504,913.156L319.435,913.156ZM694.531,886.344C695.405,894.178 695.696,901.317 695.696,912.633L695.696,966.257C695.696,977.4 695.405,984.016 694.531,992.547L724.964,992.547C724.236,985.06 723.799,975.659 723.799,966.257L723.799,912.633C723.799,900.446 724.091,893.482 724.964,886.344L694.531,886.344ZM380.738,847.693C381.612,854.309 381.903,861.621 381.903,873.982L381.903,966.257C381.903,978.793 381.612,984.712 380.738,992.547L411.171,992.547C410.297,983.319 410.006,976.703 410.006,966.257L410.006,873.982C410.006,862.143 410.297,855.005 411.171,847.693L380.738,847.693ZM194.791,992.547C191.151,983.319 189.404,978.967 187.802,974.092C181.25,955.289 179.211,949.369 177.027,943.798C172.367,931.436 169.018,927.432 161.592,924.646C168.727,921.861 171.785,919.946 175.425,915.941C181.104,909.499 184.016,899.75 184.016,887.388C184.016,862.317 170.329,847.693 146.74,847.693L108.88,847.693C98.979,847.693 93.591,847.519 87.184,847.17C88.058,855.527 88.349,861.969 88.349,872.764L88.349,966.431C88.349,979.315 88.058,984.538 87.184,992.547L118.491,992.547C117.617,984.538 117.326,978.096 117.326,966.257L117.326,937.704L132.178,937.704C136.838,937.704 140.478,939.097 143.536,942.405C147.176,946.235 148.924,950.24 153.583,965.387C158.097,979.837 159.845,986.975 160.718,992.547L194.791,992.547ZM229.01,925.169C231.486,913.678 237.747,908.107 248.085,908.107C258.133,908.107 264.394,914.026 266.433,925.169L229.01,925.169ZM449.903,925.169C452.379,913.678 458.64,908.107 468.979,908.107C479.026,908.107 485.287,914.026 487.326,925.169L449.903,925.169ZM923.288,925.169C925.763,913.678 932.024,908.107 942.363,908.107C952.41,908.107 958.671,914.026 960.71,925.169L923.288,925.169ZM117.326,907.933L117.326,876.942L140.187,876.942C149.215,876.942 153.875,881.991 153.875,891.741C153.875,901.665 148.633,907.933 140.041,907.933L117.326,907.933ZM694.968,847.693L694.968,873.808L724.527,873.808L724.527,847.693L694.968,847.693ZM1002.52,45.476L1002.79,45.597C1007.65,47.855 1012.22,50.697 1016.37,54.089C1025.98,61.946 1033.19,72.598 1036.87,84.458C1038.77,90.574 1039.7,96.947 1039.72,103.347L1039.72,861.642C915.092,846.859 755.634,826.157 511.634,794.099L488.655,794.099C488.821,793.933 488.979,793.77 489.129,793.612C492.705,789.86 488.895,778.044 488.895,778.044L489.129,776.577L485.19,775.957C485.374,771.303 484.643,769.694 482.421,766.675C480.796,762.03 475.688,760.905 469.593,760.671C468.035,757.367 463.034,756.464 456.787,755.777L455.825,753.05L453.83,753.05L451.399,751.666C450.147,750.328 451.708,748.325 450.447,747.413C449.683,746.86 447.837,747.048 447.864,746.028C447.892,744.987 447.86,744.221 447.207,743.876C445.529,742.988 442.979,740.82 442.979,740.82L440.926,741.638C440.926,741.638 438.022,741.267 436.712,741.638C435.843,741.883 434.821,743.497 434.16,743.439L433.396,742.657L433.396,738.542L428.431,735.679L427.923,733.929L425.836,733.929C425.101,732.888 423.593,732.033 421.87,732.143L420.468,730.409L418.91,729.311L418.196,727.454L414.384,723.362C412.793,722.691 411.316,722.362 409.947,722.358L406.642,723.362L405.923,722.634C405.441,721.83 406.141,718.079 405.607,717.358C404.509,715.874 403.403,714.077 401.97,713.283C400.428,712.429 398.126,711.528 396.303,711.239C395.105,711.049 394.337,711.584 393.342,710.953C393.004,710.738 393.183,709.674 392.867,709.401L388.243,703.37L382.879,698.211C380.643,696.568 378.313,695.447 375.925,694.648C372.559,690.889 368.597,687.47 363.764,684.548C355.072,675.931 345.057,668.958 333.773,663.559C332.454,662.928 330.945,663.308 329.592,662.72C322.768,657.718 313.605,656.456 301.186,660.4L295.897,662.72L287.271,665.051C280.018,664.211 273.92,665.431 269.136,668.998L262.099,669.71C261.188,668.715 260.593,667.729 260.93,666.791C261.145,666.19 263.883,663.81 264.881,663.245C268.829,660.693 270.809,659.723 273.887,656.765C275.283,656.277 276.021,656.089 277.277,655.163C277.873,654.723 279.509,654.934 280.764,654.068C283.087,652.466 284.39,649 284.543,645.208C284.579,644.309 287.193,642.728 287.75,642.042C289.3,640.293 291.792,638.913 292.791,637.556C293.538,636.543 293.597,635.208 293.744,633.9L312.312,643.695L354.876,572.562C348.946,568.706 345.356,566.533 338.208,561.655C337.757,561.348 336.551,560.813 336.178,559.955C335.875,559.257 336.384,558.238 336.178,557.828C336.178,557.828 335.256,557.441 334.9,557.828C334.5,558.264 334.315,560.475 333.346,560.353C332.523,560.25 330.6,559.275 328.581,558.558C327.29,558.1 323.959,557 323.959,557C323.959,557 322.965,557.416 322.655,557.51C322.094,557.681 319.539,555.654 319.539,555.654C308.894,568.896 304.807,576.548 300.102,584.328L297.803,582.961C290.406,588.153 289.121,595.051 289.77,600.919C289.77,600.919 285.782,599.987 284.543,601.215C283.244,602.501 280.932,607.848 278.873,611.215C277.182,613.981 275.575,614.981 275.575,614.981L272.779,614.981C272.779,614.981 270.853,616.801 269.72,617.463C267.215,618.926 257.748,623.763 257.748,623.763C257.748,623.763 256.206,615.077 254.869,611.215C254.226,609.358 252.715,604.421 251.415,601.215C248.466,593.942 245.074,589.596 245.146,587.975C243.006,576.927 238.848,573.566 234.49,570.964C234.49,570.964 231.806,566.741 230.756,565.897C230.088,565.36 228.97,566.248 228.189,565.897C227.263,565.481 225.698,564.583 225.2,563.4C224.701,562.218 223.701,558.5 225.2,558.802C227.263,559.218 234.81,564.797 237.577,565.897C238.896,566.421 240.542,565.943 241.804,565.402C243.065,564.86 244.261,563.491 245.146,562.649C245.876,561.955 246.449,560.904 247.115,560.353C247.696,559.872 248.425,559.585 249.139,559.344C249.903,559.085 251.224,559.564 251.698,558.802C251.974,558.358 252.443,557.297 252.322,556.135C252.236,555.312 251.159,554.83 251.415,554.495C252.031,553.687 254.317,554.719 255.113,554.495C255.666,554.339 256.233,553.723 256.191,553.149C256.096,551.851 255.841,548.147 257.002,547.298C257.472,546.954 260.803,548.014 262.099,546.852C263.678,545.435 263.362,542.56 262.494,538.673C262.065,536.749 261.817,535.355 262.099,534.088C262.365,532.894 263.221,531.82 264.188,531.073C265.225,530.272 267.847,529.746 268.319,529.284C268.731,528.882 268.684,527.383 269.136,526.545C270.005,524.936 273.533,519.628 273.533,519.628C273.533,519.628 275.235,517.046 275.575,516.1C275.818,515.428 275.215,514.401 275.575,513.955C275.936,513.509 277.189,513.425 277.738,513.425C278.155,513.425 278.503,513.867 278.873,513.955C279.225,514.039 279.888,514.307 279.959,513.955C280.03,513.603 279.298,512.272 279.298,511.842C279.298,511.572 279.714,511.376 279.959,511.376C280.203,511.376 280.556,511.636 280.764,511.842C280.972,512.048 281.007,512.394 281.207,512.612C281.448,512.876 281.933,513.553 282.213,513.425C282.492,513.297 282.787,512.407 282.885,511.842C282.997,511.196 283.071,510.124 282.885,509.547C282.719,509.033 281.767,508.838 281.767,508.377C281.767,507.916 282.538,507.045 282.885,506.779C283.141,506.583 283.749,507.085 283.85,506.779C284.011,506.292 284.123,504.572 283.85,503.859C283.597,503.195 282.359,503.193 282.213,502.498C282.052,501.73 282.885,500.223 282.885,499.255C282.885,498.369 282.492,497.21 282.213,496.684C282.03,496.342 281.387,496.445 281.207,496.101C280.831,495.383 280.554,493.542 279.959,492.377C279.304,491.095 277.647,489.636 277.277,488.409C276.948,487.317 278.262,486.029 277.738,485.015C277.114,483.807 274.552,482.175 273.533,481.16C272.839,480.469 271.852,479.612 271.625,478.926C271.42,478.304 272.385,477.354 272.173,477.04C271.962,476.726 270.66,477.422 270.357,477.04C270.054,476.658 270.357,475.356 270.357,474.747C270.357,474.293 270.696,473.385 270.357,473.385C270.208,473.385 269.865,473.645 269.497,473.939L269.179,474.193C268.812,474.486 268.468,474.747 268.319,474.747C267.98,474.747 268.319,473.839 268.319,473.385C268.319,472.818 268.558,471.984 268.319,471.348C268.022,470.555 267.109,469.081 266.536,468.627C266.103,468.285 265.272,469.007 264.881,468.627C264.489,468.247 264.534,466.855 264.188,466.348C263.891,465.913 262.967,465.209 262.805,465.589C262.643,465.969 263.216,468.014 263.216,468.627C263.216,468.882 262.882,469.514 262.805,469.271C262.685,468.892 262.75,466.962 262.494,466.348C262.309,465.904 261.532,465.984 261.271,465.589C261.01,465.194 261.128,464.248 260.93,463.98C260.762,463.752 260.225,464.088 260.084,463.98C259.943,463.872 260.291,463.39 260.084,463.332C259.694,463.224 258.137,463.486 257.748,463.332C257.463,463.219 258.006,462.575 257.748,462.41C257.454,462.221 256.434,462.589 255.986,462.202C255.506,461.787 255.353,460.404 254.869,459.924C254.421,459.481 253.428,459.242 253.078,459.323C252.728,459.403 252.894,460.502 252.768,460.406C252.643,460.31 252.604,458.928 252.322,458.747C252.04,458.567 251.494,459.475 251.074,459.323C250.654,459.17 250.014,458.259 249.802,457.832C249.643,457.513 250.064,457.003 249.802,456.762C249.466,456.453 248.359,456.163 247.789,455.976C247.33,455.826 246.722,455.611 246.379,455.643C246.102,455.669 245.902,456.363 245.73,456.167C245.558,455.971 245.556,454.976 245.347,454.468C245.142,453.973 244.751,453.151 244.473,453.12C244.194,453.089 243.918,454.281 243.678,454.281C243.439,454.281 243.448,453.276 243.034,453.12C242.524,452.926 241.374,453.393 240.616,453.12C239.667,452.777 238.21,451.408 237.343,451.065C236.744,450.829 235.796,450.856 235.414,451.065C235.032,451.274 235.424,452.424 235.049,452.319C234.675,452.214 233.639,450.351 233.169,450.438C232.699,450.525 232.601,452.739 232.23,452.843C231.859,452.948 231.433,451.065 230.941,451.065C230.449,451.065 229.901,452.789 229.279,452.843C228.658,452.897 227.74,451.686 227.214,451.39C226.883,451.203 226.304,451.297 226.122,451.065C225.94,450.834 226.268,450.325 226.122,450.002C225.968,449.662 225.555,448.951 225.2,449.024C224.844,449.097 224.57,450.222 223.989,450.438C223.355,450.674 222.094,450.405 221.393,450.438C220.854,450.463 219.861,450.354 219.785,450.634C219.709,450.914 221.49,451.828 220.936,452.118C220.145,452.532 216.22,452.917 215.039,453.12C214.641,453.188 214.046,452.989 213.848,453.331C213.649,453.673 214.347,454.816 213.848,455.17C213.136,455.676 210.841,455.598 209.576,456.365C208.063,457.283 205.686,459.671 204.767,460.678C204.347,461.138 204.275,462.09 204.058,462.41C203.943,462.58 203.603,462.438 203.469,462.594C203.294,462.797 203.347,463.458 203.01,463.625C202.664,463.797 201.862,463.502 201.389,463.625C200.93,463.745 200.31,463.909 200.173,464.364C200.004,464.921 200.705,466.471 200.38,466.97C200.055,467.469 198.695,467.029 198.222,467.359C197.749,467.689 197.972,468.568 197.541,468.952C197.092,469.351 195.97,469.183 195.529,469.756C195.02,470.418 194.974,471.926 194.485,472.924C193.962,473.989 193.054,475.051 192.394,476.149C191.649,477.387 190.558,478.873 190.016,480.351C189.475,481.829 189.406,484.127 189.146,485.015C189.056,485.323 188.516,485.367 188.454,485.681C188.305,486.432 188.286,488.24 188.253,489.521C188.219,490.827 188.29,492.184 188.253,493.515C188.215,494.89 187.99,496.589 188.024,497.776C188.051,498.74 188.267,500.054 188.454,500.637C188.549,500.936 189.171,500.96 189.146,501.272C189.112,501.686 188.199,502.437 188.253,503.119C188.32,503.985 189.406,505.279 189.552,506.467C189.701,507.673 189.146,509.46 189.146,510.356C189.146,510.581 189.224,510.795 189.311,511.008L189.387,511.19C189.474,511.403 189.552,511.618 189.552,511.842C189.552,512.442 189.068,513.541 189.146,513.955C189.204,514.266 189.961,514.017 190.016,514.328C190.161,515.148 189.925,517.878 190.016,518.876C190.063,519.388 190.477,519.81 190.564,520.317C190.655,520.848 190.327,521.771 190.564,522.062C190.802,522.353 191.82,521.617 191.988,522.062C192.226,522.691 192.11,524.634 191.988,525.838C191.87,527.006 191.409,528.12 191.255,529.284C191.084,530.581 191.223,532.193 190.96,533.617C190.608,535.52 189.861,538.425 189.146,540.706C188.443,542.946 187.509,545.576 186.67,547.298C186.009,548.656 184.964,550.414 184.113,551.037C183.427,551.539 182.081,550.894 181.565,551.037C181.238,551.128 181.302,551.71 181.019,551.898C180.49,552.25 178.831,552.398 178.393,553.149C177.955,553.9 178.95,555.501 178.393,556.403C177.836,557.305 175.812,557.471 175.051,558.558C173.514,560.755 170.598,566.659 169.171,569.583C168.141,571.695 167.454,573.959 166.494,576.102C165.436,578.462 163.965,581.156 162.827,583.741C161.637,586.446 160.099,591.357 159.353,592.328C158.758,593.103 155.54,606.497 155.54,606.497C155.54,606.497 149.195,623.499 144.25,640.893C136.823,578.271 134.551,489.607 134.928,453.715C135.038,443.291 140.569,433.05 147.053,424.902C166.906,399.95 236.216,326.856 254.048,304.007C257.367,299.755 252.482,292.976 254.048,287.81C255.7,282.363 260.015,273.298 263.98,264.754C265.384,274.725 271.221,285.72 283.266,294.645L283.369,294.484C286.378,289.781 288.756,285.353 290.53,281.189C291.286,286.215 292.911,291.545 295.606,297.05L295.771,296.955C309.81,288.863 318.023,280.356 321.133,271.484C322.22,268.383 322.684,265.238 322.554,262.049C324.135,265.16 326.192,268.247 328.774,271.219C326.692,273.561 324.908,276.418 323.565,279.686C319.389,289.847 319.471,303.977 328.08,318.892L328.239,318.785C341.695,309.741 349.311,300.685 351.81,291.62C352.925,287.577 353.023,283.532 352.166,279.485C355.043,283.335 358.523,287.108 362.667,290.715L362.812,290.52C370.354,280.383 375.271,271.162 377.764,262.785C380.642,271.727 387.327,280.913 398.916,287.939L399.005,287.769C406.484,273.303 408.839,261.665 406.705,252.504C405.96,249.302 404.665,246.403 402.849,243.79C405.844,245.546 409.228,247.021 412.992,248.113C412.494,251.22 412.524,254.596 413.143,258.078C415.07,268.906 422.705,280.75 437.935,288.603L438.012,288.427C444.49,273.477 446.049,261.704 443.298,252.712C442.072,248.703 439.988,245.246 437.1,242.308C439.677,243.269 442.408,244.099 445.295,244.778C446.182,247.328 447.194,249.957 448.33,252.67L448.425,252.894C453.309,250.404 457.589,247.59 461.301,244.555C459.502,248.274 458.629,252.223 458.743,256.418C459,265.824 464.224,276.468 475.118,288.525L475.246,288.667C487.169,276.292 490.629,262.6 489.008,251.721C488.486,248.223 487.439,245.016 485.978,242.236C489.195,239.981 491.931,237.486 494.209,234.853C493.32,237.916 493.017,241.081 493.33,244.355C494.225,253.722 500.16,263.98 511.847,275.254L511.985,275.386C520.723,264.975 524.13,254.108 524.009,244.707C529.037,251.832 536.629,258.97 546.998,266.124L547.197,266.261C549.973,261.502 552.068,256.8 553.566,252.222C554.043,256.332 555.423,260.131 557.766,263.598C563.018,271.372 573.113,277.478 588.735,281.68L588.919,281.73C592.324,264.814 587.905,251.407 580.715,243.138C578.403,240.479 575.805,238.352 573.087,236.809C574.586,233.157 575.552,229.567 576.059,226.108C576.951,229.17 578.391,231.999 580.408,234.583C586.176,241.975 596.662,247.369 612.532,250.48L612.719,250.516C613.519,244.429 613.361,238.854 612.478,233.849C615.483,237.218 619.144,240.64 623.491,244.118L623.64,244.238C633.443,230.093 634.683,216.019 631.354,205.543C630.809,203.827 630.141,202.208 629.368,200.701C631.433,200.615 633.411,200.47 635.303,200.268C638.356,208.482 645.624,216.749 657.637,225.075L657.794,225.184C660.581,220.51 662.515,215.903 663.73,211.463C667.483,218.678 673.921,225.677 683.605,231.115L683.688,230.942C690.687,216.233 692.658,204.522 690.224,195.438C689.373,192.263 687.984,189.409 686.083,186.859C689.134,188.512 692.565,189.873 696.363,190.839C695.967,193.96 696.108,197.334 696.842,200.793C699.124,211.551 707.144,223.132 722.624,230.47L722.695,230.292C724.748,225.091 726.234,220.283 727.178,215.851C728.881,220.635 731.495,225.549 735.192,230.425L735.336,230.3C747.564,219.625 753.995,209.677 755.35,200.367C755.824,197.113 755.677,193.936 754.94,190.833C757.086,193.577 759.695,196.205 762.797,198.618C761.201,201.322 759.998,204.473 759.305,207.94C757.15,218.725 759.933,232.573 771.233,245.53L771.368,245.394C782.841,233.898 788.582,223.529 789.301,214.147C789.622,209.963 788.944,205.975 787.33,202.171C790.888,205.389 795.025,208.413 799.78,211.144L799.885,210.925C805.347,199.509 808.408,189.503 809.252,180.798C813.786,189.011 822.102,196.722 834.817,201.358L834.871,201.174C839.443,185.523 839.528,173.645 835.683,165.072C834.339,162.076 832.514,159.483 830.232,157.274C833.507,158.412 837.11,159.201 841.012,159.539C841.117,162.684 841.792,165.992 843.066,169.287C847.027,179.536 856.784,189.67 873.229,194.408L873.271,194.22C876.768,178.289 876.046,166.434 871.627,158.147C869.657,154.452 866.951,151.467 863.556,149.147C866.373,149.604 869.325,149.891 872.411,149.985C873.028,151.745 873.751,153.531 874.587,155.337L874.754,155.246C888.968,147.471 897.366,139.15 900.67,130.35C902.144,126.426 902.604,122.407 902.116,118.298C904.634,122.396 907.761,126.472 911.563,130.443L911.725,130.263C920.147,120.858 925.873,112.125 929.109,104.011C931.171,113.179 937.003,122.939 947.913,130.998L948.016,130.836C956.765,117.114 960.156,105.74 958.855,96.422C958.4,93.165 957.371,90.159 955.797,87.391C958.622,89.413 961.86,91.192 965.51,92.624C964.735,95.673 964.461,99.038 964.765,102.562C965.711,113.522 972.25,126.016 986.711,135.231L986.803,135.063C994.599,120.768 997.209,109.185 995.278,99.979C994.417,95.874 992.652,92.241 990.04,89.051C994.353,91.125 999.167,92.849 1004.49,94.116L1004.53,93.876C1007.48,75.897 1006.48,62.124 1001.97,52.098C1002.29,49.781 1002.47,47.574 1002.52,45.476ZM377.85,764.559L379.519,751.666C370.37,753.519 363.014,750.509 357.092,743.611C348.26,739.956 332.475,725.4 317.859,712.679C309.95,718.16 302.054,722.05 294.191,721.507L290.149,724.692L314.398,728.428C318.334,725.505 320.895,726.713 322.467,730.888C336.001,733.291 343.88,739.474 346.856,748.933L362.295,760.704L370.75,764.559L377.85,764.559ZM220.023,276.162C210.152,265.861 204.763,256.508 203.363,247.999C201.468,247.829 199.5,247.586 197.457,247.268C197.927,248.897 198.273,250.616 198.479,252.406C199.742,263.333 195.833,276.901 183.51,288.869L183.386,288.723C179.787,284.464 176.849,280.393 174.544,276.502C174.454,281.585 173.543,287.086 171.594,292.902L171.417,292.83C156.441,286.686 147.183,279.351 142.937,270.973C141.453,268.045 140.581,264.989 140.291,261.811C139.132,265.106 137.498,268.441 135.328,271.732C137.7,273.775 139.842,276.368 141.602,279.428C147.075,288.942 148.848,302.958 142.271,318.892L142.1,318.808C133.21,314.421 126.488,309.738 121.771,304.782C116.92,319.995 113.362,333.255 111.411,342.071C109.151,352.278 122.592,368.325 128.532,368.325C134.472,368.325 142.131,347.509 147.053,342.071C149.901,338.924 153.884,336.41 158.062,335.693C162.69,334.9 180.2,325.091 200.063,301.076C205.081,295.009 214.036,284.835 220.023,276.162ZM290.812,250.361C292.176,252.604 293.174,255.007 293.789,257.577C294.728,255.679 295.816,253.941 297.019,252.38C295.696,251.82 294.415,251.231 293.175,250.615C292.399,250.56 291.611,250.476 290.812,250.361ZM170.22,245.983C169.162,248.389 168.488,250.904 168.216,253.534C167.036,251.779 165.73,250.2 164.332,248.815C165.57,248.083 166.763,247.328 167.911,246.551C168.673,246.393 169.443,246.204 170.22,245.983ZM386.181,223.074C386.199,226.754 385.825,230.152 385.037,233.252C385.743,232.806 386.484,232.417 387.258,232.09L387.35,232.052L387.412,232.078C389.04,232.784 390.576,233.541 392.017,234.352C391.752,234.006 391.495,233.657 391.247,233.306C388.967,230.083 387.411,226.658 386.6,223.282L386.181,223.074ZM326.512,226.26C326.105,225.884 325.708,225.504 325.323,225.12C325.526,225.666 325.709,226.217 325.873,226.773C326.083,226.596 326.295,226.425 326.512,226.26ZM504.906,186.584C505.627,191.161 507.146,196.008 509.502,201.137C506.651,202.649 504.323,204.809 502.77,207.537L502.721,207.624C503.974,212.028 505.632,215.865 507.722,219.098C506.912,218.905 506.086,218.777 505.248,218.718L505.149,218.711L505.099,218.756C503.782,219.953 502.569,221.168 501.462,222.402C501.603,221.989 501.735,221.576 501.859,221.163C503.948,214.17 503.487,207.33 500.858,202.162C503.452,196.865 504.72,191.543 504.906,186.584ZM314.818,198.129L314.991,197.665C314.272,202.077 314.806,207.066 316.696,212.035C316.849,212.437 317.011,212.84 317.182,213.242C315.988,212.092 314.689,210.971 313.289,209.876L313.235,209.834L313.137,209.848C312.306,209.969 311.492,210.158 310.698,210.411C312.546,207.032 313.921,203.082 314.849,198.597L314.714,198.397L314.818,198.129ZM602.398,204.747C601.82,207.314 601.64,209.913 601.876,212.546C600.382,211.054 598.799,209.76 597.162,208.673C598.237,207.713 599.263,206.74 600.241,205.755C600.958,205.451 601.678,205.115 602.398,204.747ZM51.083,195.726C51.238,195.479 51.397,195.236 51.561,194.995C51.492,194.713 51.428,194.43 51.37,194.146C51.091,194.276 50.809,194.403 50.525,194.527C50.708,194.927 50.894,195.326 51.083,195.726ZM318.046,189.823C317.759,189.86 317.474,189.912 317.19,189.976C317.054,190.676 316.897,191.385 316.719,192.103C317.107,191.303 317.549,190.541 318.046,189.823ZM721.559,185.548C723.327,187.483 724.766,189.647 725.86,192.049C726.419,190.004 727.153,188.086 728.036,186.32C726.631,186.029 725.261,185.7 723.927,185.337C723.155,185.435 722.365,185.505 721.559,185.548ZM476.171,177.948C475.191,180.274 474.566,182.738 474.312,185.346C474.251,185.971 474.211,186.603 474.193,187.246C472.72,185.673 471.028,184.352 469.136,183.335L476.171,177.948ZM504.423,179.577C504.197,178.335 503.898,177.134 503.531,175.984C503.594,176.024 503.657,176.063 503.72,176.102C504.016,176.285 504.316,176.463 504.622,176.636C504.554,177.244 504.503,177.857 504.468,178.476C504.447,178.841 504.432,179.208 504.423,179.577ZM674.821,177.634L674.706,177.665L674.946,177.788L674.821,177.634ZM642.258,153.37C640.318,155.14 638.827,157.273 637.92,159.704L637.885,159.797C639.003,162.19 640.224,164.374 641.552,166.341C640.837,166.872 640.133,167.44 639.442,168.044C639.287,163.718 638.206,159.758 636.352,156.52C636.789,153.742 636.872,151.103 636.614,148.6C636.277,145.328 635.358,142.286 633.884,139.462C636.635,141.587 639.806,143.484 643.403,145.049C642.651,147.613 642.252,150.418 642.258,153.37ZM372.897,133.776C371.07,134.788 369.411,135.894 368.086,137.05C368.9,138.383 369.632,139.818 370.269,141.343C372.354,146.338 373.411,152.302 372.927,158.855L373.354,159.609C373.546,159.944 373.737,160.28 373.928,160.615L374.356,161.361C376.201,161.688 377.96,162.322 379.578,163.275L379.664,163.325C379.996,164.684 380.269,166.016 380.482,167.32C380.766,167.295 381.068,167.269 381.383,167.244C378.135,161.229 377.601,154.704 380.263,149.402L380.308,149.313L380.372,149.293C381.503,148.941 382.617,148.633 383.714,148.37C378.386,143.639 374.823,138.77 372.897,133.776ZM492.819,162.189C492.961,162.588 493.11,162.981 493.265,163.368C492.888,163.196 492.506,163.039 492.116,162.897L492.819,162.189ZM491.893,159.183L489.544,158.179C491.445,151.378 490.619,144.73 487.162,140.011C488.297,136.906 488.937,133.909 489.101,131.016C489.288,127.732 488.864,124.581 487.859,121.555C490.236,124.097 493.065,126.483 496.366,128.61C495.013,131.445 494.09,134.691 493.703,138.207C493.36,141.329 493.439,144.663 494.017,148.113C492.75,148.927 491.607,149.911 490.617,151.06L490.552,151.136C490.796,154.01 491.24,156.694 491.893,159.183ZM555.691,155.173C554.861,154.701 553.99,154.306 553.08,153.995L552.986,153.963L552.926,153.994C551.781,154.589 550.686,155.208 549.644,155.85C550.931,153.101 551.69,150.245 551.943,147.287C552.88,149.906 554.119,152.549 555.691,155.173ZM751.978,154.945C751.507,154.656 751.045,154.36 750.594,154.058C750.897,154.555 751.183,155.06 751.45,155.573C751.621,155.359 751.798,155.15 751.978,154.945ZM671.977,149.833L672.334,150.218L672.628,150.529L672.316,150.567L672.19,150.514C672.122,150.286 672.051,150.059 671.977,149.833ZM797.139,120.794C798.772,125.126 799.846,130.092 800.334,135.724C803.552,135.601 806.637,136.304 809.33,137.89L809.415,137.94C810.502,142.389 810.957,146.55 810.74,150.404C811.347,149.829 812,149.303 812.697,148.831L812.78,148.775L812.846,148.789C814.578,149.165 816.23,149.609 817.799,150.123C817.473,149.835 817.154,149.543 816.843,149.247C811.581,144.234 808.606,138.071 808.336,132.267C803.473,128.978 799.747,125.001 797.139,120.794ZM735.931,134.288C735.606,134.591 735.275,134.893 734.938,135.193C734.646,137.792 734.147,140.222 733.43,142.476C734.161,142.073 734.924,141.729 735.716,141.448L735.81,141.415L735.87,141.445C737.454,142.247 738.943,143.095 740.334,143.989C740.09,143.629 739.854,143.265 739.626,142.9C737.878,140.09 736.645,137.17 735.931,134.288ZM521.927,131.627C522.999,134.026 523.686,136.538 523.973,139.166C525.143,137.404 526.44,135.818 527.831,134.425C526.589,133.7 525.392,132.952 524.24,132.182C523.477,132.028 522.706,131.843 521.927,131.627ZM434.155,134.522L433.772,134.359C433.186,133.735 432.584,133.139 431.968,132.573C431.009,131.691 430.015,130.879 428.988,130.135C429.702,127.293 430.055,124.502 430.085,121.826C430.105,120.025 429.978,118.275 429.716,116.599C431.703,117.176 433.625,117.67 435.483,118.081C435.623,121.872 436.508,125.923 438.179,130.25C436.709,131.547 435.366,132.97 434.155,134.522ZM695.29,118.493C695.059,119.751 694.783,121.028 694.459,122.323L694.277,122.265C692.9,121.824 691.567,121.369 690.279,120.901C690.834,121.836 691.349,122.819 691.822,123.845C692.614,125.564 693.284,127.405 693.81,129.354C698.12,129.351 702.126,129.766 705.813,130.62C701.027,126.724 697.547,122.679 695.29,118.493ZM725.591,125.373C725.349,124.895 725.116,124.419 724.891,123.947C724.844,124.385 724.79,124.825 724.73,125.267C725.019,125.296 725.306,125.332 725.591,125.373ZM871.444,121.034C872.048,119.207 872.778,117.484 873.614,115.88C875.246,112.749 877.278,110.067 879.563,107.925C877.258,104.729 875.487,101.466 874.192,98.223C874.035,101.411 873.291,104.501 871.929,107.489C870.879,109.795 869.461,112.041 867.662,114.223C869.03,116.28 870.292,118.548 871.444,121.034ZM402.862,111.836C401.509,114.086 400.524,116.495 399.924,119.068C398.974,117.176 397.877,115.443 396.665,113.89C397.985,113.323 399.263,112.726 400.499,112.103C401.275,112.044 402.063,111.955 402.862,111.836ZM757.02,103.578C756.32,100.723 756.014,97.989 756.086,95.372C756.177,92.084 756.865,88.981 758.123,86.053C755.539,88.381 752.519,90.515 749.051,92.35C750.159,95.292 750.805,98.605 750.894,102.141C751.011,106.833 750.148,111.917 748.084,117.041C750.543,117.4 752.84,117.987 754.97,118.81C754.225,113.252 754.925,107.969 757.02,103.578ZM560.37,112.294C560.013,111.869 559.668,111.442 559.334,111.011C559.466,111.579 559.579,112.149 559.672,112.722C559.901,112.573 560.134,112.43 560.37,112.294ZM480.062,109.211L479.944,109.203L480.133,109.397L480.062,109.211ZM723.328,93.158C722.058,95.457 721.161,97.9 720.653,100.494C719.636,98.638 718.477,96.947 717.21,95.439C718.508,94.823 719.764,94.181 720.977,93.513C721.75,93.425 722.534,93.307 723.328,93.158ZM548.479,91.786C547.909,92.756 547.308,93.676 546.676,94.548C547.496,94.398 548.327,94.315 549.167,94.302L549.266,94.3L549.314,94.348C550.566,95.614 551.712,96.893 552.752,98.186C552.633,97.765 552.523,97.345 552.422,96.926C552.216,96.075 552.047,95.227 551.914,94.388C550.708,93.543 549.564,92.675 548.479,91.786ZM302.158,96.063L302.148,96.047L302.081,96.106L302.158,96.063ZM163.341,88.809L162.478,88.765C162.422,88.523 162.363,88.283 162.302,88.045C162.704,88.089 163.111,88.129 163.522,88.168C163.46,88.382 163.399,88.596 163.341,88.809ZM502.605,78.531C499.541,73.95 497.576,69.233 496.548,64.662C494.284,70.339 490.801,76.319 486.03,82.618L486.16,82.732C491.614,83.832 496.267,85.646 500.053,88.232C500.384,84.71 501.25,81.427 502.605,78.531ZM137.374,78.669C136.438,80.074 135.635,81.505 134.97,82.961C133.364,80.775 131.559,78.876 129.608,77.31C130.159,74.421 130.517,71.61 130.7,68.885C132.144,72.663 134.352,75.936 137.374,78.669ZM69.686,74.003C67.49,74.942 65.484,76.02 63.674,77.241C63.381,76.88 63.082,76.531 62.777,76.193C65.336,73.201 67.37,70.098 68.927,66.975C68.849,69.344 69.098,71.687 69.686,74.003ZM934.296,48.629C934.173,51.656 933.78,54.853 933.11,58.224C936.232,59.02 938.997,60.57 941.139,62.856L941.207,62.929C941.01,67.507 940.288,71.629 939.005,75.266C939.749,74.886 940.522,74.567 941.322,74.311L941.417,74.282L941.476,74.314C943.034,75.166 944.496,76.06 945.858,76.999C945.625,76.631 945.401,76.26 945.185,75.888C941.532,69.583 940.394,62.824 941.752,57.179C939.946,54.994 938.438,52.731 937.212,50.439C936.202,49.856 935.23,49.252 934.296,48.629ZM534.637,73.383C533.278,69.941 532.488,66.508 532.204,63.214C531.9,59.69 532.174,56.324 532.949,53.276C529.299,51.844 526.061,50.065 523.236,48.043C524.81,50.81 525.838,53.816 526.293,57.073C527.011,62.211 526.302,67.975 524.054,74.41C524.224,74.513 524.392,74.617 524.558,74.721C525.728,74.373 526.895,74.094 528.05,73.881C530.305,73.466 532.516,73.306 534.637,73.383ZM766.932,74.424L767.051,74.426L766.846,74.603L766.932,74.424ZM106.323,73.583C104.543,73.342 102.798,73.259 101.111,73.327C100.89,71.846 100.591,70.412 100.22,69.032C102.061,70.598 104.094,72.116 106.323,73.583ZM446.489,69.071C446.658,68.903 446.829,68.738 447.002,68.576C444.697,65.38 442.926,62.117 441.631,58.875C441.474,62.062 440.729,65.152 439.368,68.141L439.287,68.316C441.11,67.983 443.026,67.756 445.032,67.632L445.099,67.628L445.172,67.695C445.641,68.128 446.08,68.587 446.489,69.071ZM177.704,52.524C174.995,54.178 171.959,55.608 168.6,56.739C168.818,57.813 168.974,58.921 169.064,60.059C170.771,59.199 172.621,58.479 174.591,57.927C175.024,57.805 175.462,57.692 175.906,57.587C176.489,55.813 177.261,54.132 178.215,52.542L177.704,52.524ZM75.954,46.116C76.66,46.899 77.386,47.634 78.13,48.321C77.297,48.337 76.466,48.421 75.64,48.574L75.542,48.593L75.505,48.649C74.524,50.139 73.649,51.62 72.881,53.094C72.916,52.658 72.942,52.225 72.96,51.794C73.017,50.399 72.985,49.034 72.87,47.707C73.881,47.15 74.91,46.619 75.954,46.116ZM748.786,51.802L748.807,51.79L748.785,51.755L748.786,51.802ZM411.07,44.328C412.228,46.687 413.005,49.172 413.386,51.787C414.493,49.984 415.732,48.352 417.071,46.908C415.803,46.229 414.58,45.525 413.401,44.798C412.633,44.673 411.856,44.516 411.07,44.328ZM868.174,43.873C867.806,44.507 867.423,45.12 867.026,45.713C867.839,45.533 868.667,45.42 869.506,45.375L869.605,45.37L869.654,45.416C870.452,46.167 871.211,46.923 871.929,47.687L872.015,47.553C870.628,46.365 869.348,45.135 868.174,43.873ZM799.403,39.826C799.5,40.191 799.589,40.561 799.671,40.934C799.822,41.624 799.947,42.328 800.046,43.046C800.503,41.901 801.063,40.823 801.723,39.826L799.403,39.826ZM190.112,40.388C190.427,40.555 190.744,40.722 191.066,40.888C190.35,41.281 189.657,41.686 188.985,42.101C189.235,41.745 189.478,41.386 189.711,41.024C189.848,40.813 189.982,40.6 190.112,40.388Z" style="fill:rgb(5,3,3);stroke:black;stroke-width:0.3px;"/>
    </g>
    <defs>
        <linearGradient id="_Linear1" x1="0" y1="0" x2="1" y2="0" gradientUnits="userSpaceOnUse" gradientTransform="matrix(68,-831,831,68,298,1029)"><stop offset="0" style="stop-color:rgb(95,157,221);stop-opacity:1"/><stop offset="0.21" style="stop-color:white;stop-opacity:1"/><stop offset="1" style="stop-color:rgb(42,0,153);stop-opacity:1"/></linearGradient>
        <linearGradient id="_Linear2" x1="0" y1="0" x2="1" y2="0" gradientUnits="userSpaceOnUse" gradientTransform="matrix(-182,-1129,1129,-182,298,1029)"><stop offset="0" style="stop-color:rgb(95,157,221);stop-opacity:1"/><stop offset="0.21" style="stop-color:rgb(0,179,255);stop-opacity:1"/><stop offset="0.63" style="stop-color:rgb(255,105,94);stop-opacity:1"/><stop offset="1" style="stop-color:rgb(41,0,153);stop-opacity:1"/></linearGradient>
    </defs>
</svg>
